<svg width="230" height="63" viewBox="0 0 230 63" fill="none" xmlns="http://www.w3.org/2000/svg">
<g filter="url(#filter0_d_145_5156)">
<rect x="3" width="224" height="56" rx="28" fill="#1400F5"/>
</g>
<path d="M80.6191 26.6855V28.5137H78.3516V36.582H76.1016V20.6211H78.3516V26.6855H80.6191ZM66.2402 32.6797V22.1504H68.4727V30.8252C70.5205 30.79 72.7178 30.5967 75.0293 30.1309L75.2578 31.9941C72.5771 32.5391 69.9844 32.6797 67.6289 32.6797H66.2402ZM94.3301 27.7754V29.5508H89.6895V32.9609H95.9297V34.7891H81.2871V32.9609H87.457V29.5508H83.0098V21.7461H94.207V23.5391H85.2598V27.7754H94.3301ZM115.635 32.9082V34.7539H100.992V32.9082H104.262V28.9883C103.022 28.2412 102.275 27.1074 102.275 25.7012C102.275 23.1084 104.807 21.4033 108.287 21.3945C111.75 21.4033 114.308 23.1084 114.316 25.7012C114.308 27.0811 113.587 28.1973 112.383 28.9443V32.9082H115.635ZM104.49 25.7012C104.49 27.2656 105.993 28.2324 108.287 28.2324C110.546 28.2324 112.093 27.2656 112.102 25.7012C112.093 24.0928 110.546 23.1611 108.287 23.1699C105.993 23.1611 104.49 24.0928 104.49 25.7012ZM106.477 32.9082H110.115V29.7969C109.544 29.9111 108.929 29.9727 108.287 29.9727C107.646 29.9727 107.039 29.9111 106.477 29.8057V32.9082ZM125.672 22.291V24.0488H122.438C122.464 25.6924 123.659 27.3623 126.234 28.0215L125.197 29.7441C123.369 29.2871 122.095 28.2764 121.365 26.9756C120.671 28.4521 119.388 29.6211 117.498 30.166L116.443 28.4258C119.001 27.6875 120.188 25.8594 120.205 24.0488H116.988V22.291H120.205V20.5508H122.473V22.291H125.672ZM119.062 33.5586C119.062 31.6426 121.172 30.5615 124.564 30.5527C127.975 30.5615 130.075 31.6426 130.084 33.5586C130.075 35.501 127.975 36.626 124.564 36.6172C121.172 36.626 119.062 35.501 119.062 33.5586ZM121.295 33.5586C121.295 34.4375 122.446 34.9121 124.564 34.9121C126.727 34.9121 127.843 34.4375 127.852 33.5586C127.843 32.7061 126.727 32.2754 124.564 32.2754C122.446 32.2754 121.295 32.7061 121.295 33.5586ZM125.197 26.7031V24.9102H127.799V20.6211H130.031V30.2891H127.799V26.7031H125.197ZM144.727 20.6211V26.8789H147.082V28.7246H144.727V36.6172H142.512V20.6211H144.727ZM132.018 24.8047V23.0117H135.639V20.8672H137.889V23.0117H141.422V24.8047H132.018ZM132.668 29.5156C132.659 27.2832 134.399 25.6924 136.764 25.7012C139.093 25.6924 140.842 27.2832 140.842 29.5156C140.842 31.748 139.093 33.3213 136.764 33.3301C134.399 33.3213 132.659 31.748 132.668 29.5156ZM134.812 29.5156C134.812 30.7549 135.63 31.4932 136.764 31.4844C137.88 31.4932 138.697 30.7549 138.697 29.5156C138.697 28.2852 137.88 27.5293 136.764 27.5117C135.63 27.5293 134.812 28.2852 134.812 29.5156ZM161.109 20.6211V36.6172H158.842V20.6211H161.109ZM147.715 32.082C151.846 30.1309 153.665 27.5996 154.025 24.0488H148.576V22.291H156.311C156.302 27.1426 154.605 31.1768 148.893 33.875L147.715 32.082Z" fill="#FCFCFC"/>
<defs>
<filter id="filter0_d_145_5156" x="0" y="0" width="230" height="63" filterUnits="userSpaceOnUse" color-interpolation-filters="sRGB">
<feFlood flood-opacity="0" result="BackgroundImageFix"/>
<feColorMatrix in="SourceAlpha" type="matrix" values="0 0 0 0 0 0 0 0 0 0 0 0 0 0 0 0 0 0 127 0" result="hardAlpha"/>
<feOffset dy="4"/>
<feGaussianBlur stdDeviation="1.5"/>
<feComposite in2="hardAlpha" operator="out"/>
<feColorMatrix type="matrix" values="0 0 0 0 0 0 0 0 0 0 0 0 0 0 0 0 0 0 0.05 0"/>
<feBlend mode="normal" in2="BackgroundImageFix" result="effect1_dropShadow_145_5156"/>
<feBlend mode="normal" in="SourceGraphic" in2="effect1_dropShadow_145_5156" result="shape"/>
</filter>
</defs>
</svg>
