<svg width="189" height="56" viewBox="0 0 189 56" fill="none" xmlns="http://www.w3.org/2000/svg">
<rect width="189" height="56" rx="28" fill="#1400F5"/>
<path d="M41.7812 20.7188V34.9688H39.7812V27.7812H37.2188V26.1875H39.7812V20.7188H41.7812ZM29.7031 30.75C31.9922 29.7266 33.1016 27.3047 33.1094 25.1719V24.625H30.1562V23.0312H33.1094V21.0312H35.1094V23.0312H37.9844V24.625H35.0938V25.1719C35.0859 27.2266 36.2266 29.5234 38.5469 30.5312L37.4844 32.0625C35.8672 31.3906 34.7344 30.0312 34.1094 28.4141C33.5 30.1328 32.375 31.5781 30.75 32.2812L29.7031 30.75ZM50.0781 20.9844C53.2422 20.9766 55.2422 22.0312 55.25 23.7656C55.2422 25.4922 53.2422 26.5234 50.0781 26.5156C46.9297 26.5234 44.8906 25.4922 44.8906 23.7656C44.8906 22.0312 46.9297 20.9766 50.0781 20.9844ZM43.5938 28.9375V27.3438H56.5625V28.9375H43.5938ZM45.0938 34.7812V29.9375H55.0156V34.7812H45.0938ZM46.9688 23.7656C46.9531 24.5625 48.0859 24.9688 50.0781 24.9688C52.0391 24.9688 53.1875 24.5625 53.1875 23.7656C53.1875 22.9453 52.0391 22.5312 50.0781 22.5312C48.0859 22.5312 46.9531 22.9453 46.9688 23.7656ZM47.0625 33.1875H53.0625V31.5156H47.0625V33.1875ZM63.9062 21.4375C66.9062 21.4453 69.2578 23.0703 69.2656 25.5312C69.2578 28.0156 66.9062 29.6328 63.9062 29.625C60.8984 29.6328 58.5625 28.0156 58.5625 25.5312C58.5625 23.0703 60.8984 21.4453 63.9062 21.4375ZM57.4219 33.2031V31.5938H70.4375V33.2031H57.4219ZM60.5 25.5312C60.4922 27.0781 61.9297 28 63.9062 28C65.8672 28 67.2891 27.0781 67.2969 25.5312C67.2891 24.0078 65.8672 23.0469 63.9062 23.0625C61.9297 23.0469 60.4922 24.0078 60.5 25.5312ZM84.2656 31.7188V33.3594H71.25V31.7188H76.7344V29.5781H72.75V24.7969H80.7969V23.2344H72.7344V21.6406H82.7656V26.3594H74.75V27.9531H83.0938V29.5781H78.7188V31.7188H84.2656ZM100.219 24V25.5625H96.25V26.5H101.734V28.0781H88.7656V26.5H94.25V25.5625H90.3906V21.1875H100.109V22.7812H92.375V24H100.219ZM90.2656 30.3125V28.8438H100.156V32.4688H92.2344V33.3125H100.531V34.8281H90.2812V31.0781H98.1875V30.3125H90.2656ZM106.422 21.7188C108.594 21.7188 110.164 23.6797 110.172 26.7812C110.164 29.9062 108.594 31.8594 106.422 31.8594C104.242 31.8594 102.664 29.9062 102.672 26.7812C102.664 23.6797 104.242 21.7188 106.422 21.7188ZM104.594 26.7812C104.594 28.8984 105.336 30.0547 106.422 30.0469C107.531 30.0547 108.258 28.8984 108.266 26.7812C108.258 24.6719 107.531 23.5156 106.422 23.5156C105.336 23.5156 104.594 24.6719 104.594 26.7812ZM111.812 34.9375V20.7188H113.812V26.0781H115.906V27.7344H113.812V34.9375H111.812ZM127.641 20.7188V26.1719H129.656V27.8125H127.641V34.9062H125.641V20.7188H127.641ZM116.266 30.9219C119.633 29.2344 121.445 26.9688 121.82 23.7969H117.078V22.1719H123.844C123.828 26.4219 122.172 30.1016 117.391 32.4531L116.266 30.9219ZM142.203 20.7188V34.9375H140.188V20.7188H142.203ZM130.297 30.9062C133.969 29.1719 135.586 26.9219 135.906 23.7656H131.062V22.2031H137.938C137.93 26.5156 136.422 30.1016 131.344 32.5L130.297 30.9062Z" fill="#FCFCFC"/>
<path d="M156 24.4366L157.206 23.1978C158.76 21.6013 161.28 21.6013 162.834 23.1978C164.389 24.7943 164.389 27.3828 162.834 28.9793L156 36L149.166 28.9791C147.611 27.3825 147.611 24.794 149.166 23.1974C150.72 21.6009 153.24 21.6009 154.794 23.1974L156 24.4366Z" fill="#FCFCFC"/>
</svg>
