<svg width="189" height="56" viewBox="0 0 189 56" fill="none" xmlns="http://www.w3.org/2000/svg">
<rect width="189" height="56" rx="28" fill="#8B8B8B"/>
<path d="M69.3281 20.7188V28.3594H67.3281V20.7188H69.3281ZM57.6406 24.6875C57.6406 22.6875 59.3125 21.2969 61.5312 21.3125C63.7422 21.2969 65.4141 22.6875 65.4219 24.6875C65.4141 26.625 63.7422 28.0156 61.5312 28.0156C59.3125 28.0156 57.6406 26.625 57.6406 24.6875ZM59.5938 24.6875C59.5781 25.7422 60.3906 26.375 61.5312 26.375C62.6406 26.375 63.4453 25.7422 63.4531 24.6875C63.4453 23.6172 62.6406 22.9609 61.5312 22.9688C60.3906 22.9609 59.5781 23.6172 59.5938 24.6875ZM59.8125 34.7812V28.9844H61.7812V30.3125H67.3438V28.9844H69.3281V34.7812H59.8125ZM61.7812 33.1719H67.3438V31.8594H61.7812V33.1719ZM78.0781 21.5469V25.9844H73.7812V27.5C75.8906 27.5 77.1562 27.4297 78.5938 27.1562L78.7812 28.75C77.1172 29.0469 75.625 29.0859 72.875 29.0938H71.8125V24.5H76.0781V23.1094H71.7812V21.5469H78.0781ZM73.4375 31.7188V30.125H83.2344V34.9375H81.25V31.7188H73.4375ZM78.8906 27.2969V25.7188H81.25V24.2812H78.8906V22.7031H81.25V20.7344H83.2344V29.4844H81.25V27.2969H78.8906ZM93.0469 21.2969C95.125 21.3047 96.6172 22.4688 96.625 24.1875C96.6172 25.5781 95.6016 26.6406 94.0781 26.9688V28.0078C95.1953 27.9375 96.3047 27.8359 97.3438 27.6875L97.5 29.1406C94.5703 29.6562 91.3125 29.7266 88.9375 29.7188L88.7344 28.1406C89.7188 28.1406 90.8672 28.1328 92.0781 28.1016V26.9844C90.5078 26.6719 89.4609 25.6016 89.4688 24.1875C89.4609 22.4688 90.9531 21.3047 93.0469 21.2969ZM90.6094 34.6719V30.625H92.6094V33.0781H100.625V34.6719H90.6094ZM91.3281 24.1875C91.3125 25.0547 92.0391 25.5547 93.0469 25.5625C94.0703 25.5547 94.75 25.0547 94.75 24.1875C94.75 23.2969 94.0625 22.8125 93.0469 22.7969C92.0391 22.8125 91.3125 23.2969 91.3281 24.1875ZM98.1406 31.5781V20.7344H100.141V25.2031H101.953V26.8594H100.141V31.5781H98.1406ZM115.609 31.7188V33.3594H102.594V31.7188H105.922V29.5469H104.094V24.7656H112.141V23.2344H104.078V21.6406H114.109V26.3594H106.094V27.9375H114.438V29.5469H112.422V31.7188H115.609ZM107.859 31.7188H110.469V29.5469H107.859V31.7188Z" fill="#FCFCFC"/>
<path d="M128 24.4366L129.206 23.1978C130.76 21.6013 133.28 21.6013 134.834 23.1978C136.389 24.7943 136.389 27.3828 134.834 28.9793L128 36L121.166 28.9791C119.611 27.3825 119.611 24.794 121.166 23.1974C122.72 21.6009 125.24 21.6009 126.794 23.1974L128 24.4366Z" fill="#FCFCFC"/>
</svg>
