<svg width="24" height="24" viewBox="0 0 24 24" fill="none" xmlns="http://www.w3.org/2000/svg">
<circle cx="12" cy="12" r="8" fill="#8491FF"/>
<path fill-rule="evenodd" clip-rule="evenodd" d="M15.3536 9.35389C15.5488 9.15863 15.5488 8.84204 15.3536 8.64678C15.1583 8.45152 14.8417 8.45152 14.6464 8.64678L11.9995 11.2937L9.35355 8.64776C9.15829 8.4525 8.84171 8.4525 8.64645 8.64776C8.45118 8.84302 8.45118 9.1596 8.64645 9.35487L11.2924 12.0008L8.64645 14.6468C8.45118 14.842 8.45118 15.1586 8.64645 15.3539C8.84171 15.5492 9.15829 15.5492 9.35355 15.3539L11.9995 12.7079L14.6464 15.3549C14.8417 15.5501 15.1583 15.5501 15.3536 15.3549C15.5488 15.1596 15.5488 14.843 15.3536 14.6478L12.7066 12.0008L15.3536 9.35389Z" fill="#F2F2F2"/>
</svg>
