<svg width="258" height="136" viewBox="0 0 258 136" fill="none" xmlns="http://www.w3.org/2000/svg">
<path d="M245.649 0C252.47 0 258 6.68297 258 14.9268V97.9242C258 106.168 252.47 112.851 245.649 112.851H79.7402L43.9149 136V112.851H12.3511C5.52975 112.851 0 106.168 0 97.9242V14.9268C0 6.68297 5.52977 0 12.3511 0H245.649Z" fill="#FFEE00"/>
<path d="M49.7773 32.9062V34.918H45.9688V40.7969H43.4297V34.918H39.7969V40.7969H37.2383V34.918H33.5078V32.9062H49.7773ZM35.1484 27.6328C35.1387 25.1816 37.7754 23.6191 41.5938 23.6094C45.4121 23.6191 48.0781 25.1816 48.0781 27.6328C48.0781 30.0254 45.4121 31.5488 41.5938 31.5391C37.7754 31.5488 35.1387 30.0254 35.1484 27.6328ZM37.707 27.6328C37.6973 28.8828 39.2109 29.5762 41.5938 29.5859C43.9961 29.5762 45.5 28.8828 45.5 27.6328C45.5 26.3242 43.9961 25.6113 41.5938 25.6016C39.2109 25.6113 37.6973 26.3242 37.707 27.6328ZM65.7539 23.0234V40.7969H63.2734V23.0234H65.7539ZM51.7695 36.4023V24.7227H54.2305V34.2832C56.6328 34.2441 59.2109 34.0195 61.8281 33.5117L62.1406 35.5625C59.0254 36.2168 56.0762 36.4121 53.332 36.4023H51.7695ZM82.6484 24.5859V26.6562C82.6387 29.2441 82.6387 31.7051 81.8281 35.5625L79.3477 35.3281C79.6992 33.8535 79.9043 32.5449 80.0312 31.3438L69.7188 31.8516L69.4062 29.8594L80.1582 29.4688C80.1973 28.4922 80.207 27.5742 80.207 26.6562V26.5781H69.9531V24.5859H82.6484ZM68.0977 38.668V36.6367H84.3086V38.668H68.0977ZM158.117 36.6758V38.7266H141.848V36.6758H148.703V33.043H143.566V24.332H156.301V33.043H151.184V36.6758H158.117ZM146.027 31.0898H153.84V26.3242H146.027V31.0898ZM168.312 24.2539V26.2461H162.688V31.5977C165.275 31.5781 167.092 31.4805 169.133 31.0898L169.367 33.082C167.004 33.502 164.885 33.5996 161.633 33.6094H160.207V24.2539H168.312ZM162.297 40.5234V34.8984H164.797V38.5312H174.543V40.5234H162.297ZM167.277 29.6445V27.6719H171.633V23.043H174.113V35.9727H171.633V29.6445H167.277ZM48.8984 47.0234V64.7969H46.5352V55.8711H44.8164V63.9375H42.5312V47.3164H44.8164V53.8789H46.5352V47.0234H48.8984ZM34.0352 60.7734V49.0742H40.6562V51.0859H36.5352V58.6836C38.2539 58.6543 39.7773 58.5566 41.4961 58.2539L41.6719 60.2852C39.5039 60.6953 37.6094 60.7637 35.2656 60.7734H34.0352ZM67.0234 55.0898V57.1016H60.1484V58.4199C63.2344 58.6445 65.0703 59.7578 65.0898 61.5938C65.0703 63.6543 62.7363 64.8066 58.8984 64.7969C55.002 64.8066 52.668 63.6543 52.668 61.5938C52.668 59.748 54.5137 58.6348 57.668 58.4102V57.1016H50.8125V55.0898H67.0234ZM51.5352 52.4727C54.8262 52.1797 56.6426 50.9688 57.0918 49.7383H52.2969V47.7852H65.5586V49.7383H60.7246C61.1543 50.9785 62.9609 52.1797 66.3398 52.4727L65.4609 54.4258C62.1016 54.1035 59.8457 52.8438 58.8984 51.1152C57.9609 52.834 55.7246 54.1133 52.3555 54.4258L51.5352 52.4727ZM55.207 61.5938C55.1973 62.4531 56.4375 62.9219 58.8984 62.9219C61.3105 62.9219 62.5801 62.4531 62.5898 61.5938C62.5801 60.6953 61.3105 60.2656 58.8984 60.2461C56.4375 60.2656 55.1973 60.6953 55.207 61.5938ZM78.3516 48.0195V49.9922H74.8164C74.8262 52.082 76.0957 54.2402 78.8984 55.168L77.668 57.082C75.7051 56.4668 74.3477 55.1777 73.5762 53.5859C72.7852 55.3535 71.3691 56.7793 69.2695 57.4531L68 55.4805C70.9297 54.5527 72.2578 52.1992 72.2773 49.9922H68.7031V48.0195H78.3516ZM70.8711 60.3828V58.3906H83.0781V64.7969H80.5977V60.3828H70.8711ZM77.8438 53.332V51.3008H80.5977V47.0234H83.0781V57.6094H80.5977V53.332H77.8438ZM148.762 51.0469C148.752 54.3086 150.236 57.5801 153.254 58.8594L151.789 60.8516C149.758 59.9336 148.352 58.1562 147.541 55.959C146.74 58.3613 145.285 60.2949 143.117 61.2812L141.613 59.2109C144.719 57.9023 146.232 54.4941 146.242 51.0469V48.3906H148.762V51.0469ZM154.211 64.8359V47.0234H156.73V64.8359H154.211ZM173.684 48.5859V50.6562C173.674 53.2441 173.674 55.7051 172.863 59.5625L170.383 59.3281C170.734 57.8535 170.939 56.5449 171.066 55.3438L160.754 55.8516L160.441 53.8594L171.193 53.4688C171.232 52.4922 171.242 51.5742 171.242 50.6562V50.5781H160.988V48.5859H173.684ZM159.133 62.668V60.6367H175.344V62.668H159.133ZM49.7773 80.9062V82.918H45.9688V88.7969H43.4297V82.918H39.7969V88.7969H37.2383V82.918H33.5078V80.9062H49.7773ZM35.1484 75.6328C35.1387 73.1816 37.7754 71.6191 41.5938 71.6094C45.4121 71.6191 48.0781 73.1816 48.0781 75.6328C48.0781 78.0254 45.4121 79.5488 41.5938 79.5391C37.7754 79.5488 35.1387 78.0254 35.1484 75.6328ZM37.707 75.6328C37.6973 76.8828 39.2109 77.5762 41.5938 77.5859C43.9961 77.5762 45.5 76.8828 45.5 75.6328C45.5 74.3242 43.9961 73.6113 41.5938 73.6016C39.2109 73.6113 37.6973 74.3242 37.707 75.6328ZM59.9922 72.6055V77.1758H63.3516V71.0234H65.8125V88.8359H63.3516V79.1875H59.9922V84.4609H51.4766V72.6055H59.9922ZM53.957 82.5273H57.5508V74.5391H53.957V82.5273ZM83.0781 71.0234V88.8359H80.5977V79.4609H77.7266V77.4297H80.5977V71.0234H83.0781ZM68.6836 74.5195V72.5078H76.7305V79.168H71.2031V82.6445C73.6543 82.625 75.7246 82.5371 78.0195 82.1367L78.2148 84.168C75.5781 84.6074 73.166 84.7051 70.1875 84.6953H68.7227V77.1953H74.3086V74.5195H68.6836ZM94.7383 73.3672C94.7285 75.9746 97.043 78.7578 101.066 79.4414L99.9727 81.5117C96.8672 80.8965 94.5723 79.1484 93.4199 76.873C92.248 79.1289 89.9434 80.8867 86.8672 81.5117L85.793 79.4414C89.748 78.7383 92.0625 75.9453 92.082 73.3672V72.0781H94.7383V73.3672ZM85.3828 86.6094V84.5586H101.652V86.6094H85.3828ZM116.77 71.043V76.4922H119.172V78.5234H116.77V84.3047H114.27V71.043H116.77ZM102.668 74.8711V72.8984H106.711V71.0039H109.191V72.8984H113.215V74.8711H102.668ZM103.527 78.9336C103.527 76.873 105.354 75.4961 107.941 75.4961C110.52 75.4961 112.316 76.873 112.316 78.9336C112.316 80.9844 110.52 82.332 107.941 82.332C105.354 82.332 103.527 80.9844 103.527 78.9336ZM105.246 88.4844V83.2891H107.727V86.4922H117.414V88.4844H105.246ZM105.969 78.9336C105.959 79.9102 106.75 80.4375 107.941 80.4375C109.143 80.4375 109.953 79.9102 109.953 78.9336C109.953 77.9473 109.143 77.4004 107.941 77.3906C106.75 77.4004 105.959 77.9473 105.969 78.9336Z" fill="#1400F5"/>
<path d="M99.4062 23.0234V29.9766H102.023V32.0273H99.4062V40.7969H96.9453V23.0234H99.4062ZM85.2852 27.6719V25.6797H89.3086V23.2969H91.8086V25.6797H95.7344V27.6719H85.2852ZM86.0078 32.9062C85.998 30.4258 87.9316 28.6582 90.5586 28.668C93.1465 28.6582 95.0898 30.4258 95.0898 32.9062C95.0898 35.3867 93.1465 37.1348 90.5586 37.1445C87.9316 37.1348 85.998 35.3867 86.0078 32.9062ZM88.3906 32.9062C88.3906 34.2832 89.2988 35.1035 90.5586 35.0938C91.7988 35.1035 92.707 34.2832 92.707 32.9062C92.707 31.5391 91.7988 30.6992 90.5586 30.6797C89.2988 30.6992 88.3906 31.5391 88.3906 32.9062ZM111.848 24.4688V25.8164H115.168V23.043H117.648V35.9727H115.168V31.6172H111.848V33.1211H103.41V24.4688H111.848ZM105.812 40.4844V34.7422H108.332V38.4922H118.02V40.4844H105.812ZM105.891 31.1875H109.406V26.4414H105.891V31.1875ZM111.848 29.6445H115.168V27.8281H111.848V29.6445ZM126.672 27.0469C126.682 30.3867 128.029 33.6387 130.988 34.918L129.465 36.9102C127.492 35.9531 126.164 34.1758 125.422 31.9785C124.66 34.3125 123.293 36.2266 121.262 37.2227L119.699 35.1914C122.746 33.8145 124.133 30.3867 124.152 27.0469V24.3906H126.672V27.0469ZM128.996 30.6211V28.6094H132.492V23.0234H134.953V40.8359H132.492V30.6211H128.996ZM190.441 23.0234V29.9766H193.059V32.0273H190.441V40.7969H187.98V23.0234H190.441ZM176.32 27.6719V25.6797H180.344V23.2969H182.844V25.6797H186.77V27.6719H176.32ZM177.043 32.9062C177.033 30.4258 178.967 28.6582 181.594 28.668C184.182 28.6582 186.125 30.4258 186.125 32.9062C186.125 35.3867 184.182 37.1348 181.594 37.1445C178.967 37.1348 177.033 35.3867 177.043 32.9062ZM179.426 32.9062C179.426 34.2832 180.334 35.1035 181.594 35.0938C182.834 35.1035 183.742 34.2832 183.742 32.9062C183.742 31.5391 182.834 30.6992 181.594 30.6797C180.334 30.6992 179.426 31.5391 179.426 32.9062ZM208.352 24.5664V26.2461C208.342 28.4727 208.342 30.9727 207.629 34.7422L205.129 34.4883C205.812 31.1289 205.842 28.6289 205.852 26.5391H195.383V24.5664H208.352ZM193.703 38.6289V36.5977H199.504V30.4844H201.984V36.5977H209.914V38.6289H193.703ZM100.266 47.0234V64.8359H97.7461V47.0234H100.266ZM85.9102 54.6016C85.9004 50.7246 87.8828 48.2734 90.6172 48.2734C93.293 48.2734 95.2852 50.7246 95.2852 54.6016C95.2852 58.5078 93.293 60.9492 90.6172 60.9492C87.8828 60.9492 85.9004 58.5078 85.9102 54.6016ZM88.3125 54.6016C88.3027 57.248 89.2305 58.6934 90.6172 58.6836C91.9648 58.6934 92.873 57.248 92.8828 54.6016C92.873 51.9648 91.9648 50.5195 90.6172 50.5195C89.2305 50.5195 88.3027 51.9648 88.3125 54.6016ZM109.562 51.8672C109.553 54.7383 111.037 57.8145 114.016 59.0547L112.668 61.0078C110.578 60.1191 109.133 58.3516 108.332 56.2031C107.531 58.5371 106.057 60.4902 103.957 61.457L102.531 59.4844C105.48 58.166 107.004 54.875 107.004 51.8672V50.7734H103.234V48.7422H113.273V50.7734H109.562V51.8672ZM115.031 64.7969V47.0234H117.551V64.7969H115.031ZM129.016 48.4883V57.0234H120.48V48.4883H129.016ZM122.531 64.4844V58.7227H125.012V62.4922H134.699V64.4844H122.531ZM122.941 55.0703H126.555V50.4805H122.941V55.0703ZM131.555 59.9922V47.0234H134.055V52.1406H136.457V54.1914H134.055V59.9922H131.555ZM190.441 47.0234V53.9766H193.059V56.0273H190.441V64.7969H187.98V47.0234H190.441ZM176.32 51.6719V49.6797H180.344V47.2969H182.844V49.6797H186.77V51.6719H176.32ZM177.043 56.9062C177.033 54.4258 178.967 52.6582 181.594 52.668C184.182 52.6582 186.125 54.4258 186.125 56.9062C186.125 59.3867 184.182 61.1348 181.594 61.1445C178.967 61.1348 177.033 59.3867 177.043 56.9062ZM179.426 56.9062C179.426 58.2832 180.334 59.1035 181.594 59.0938C182.834 59.1035 183.742 58.2832 183.742 56.9062C183.742 55.5391 182.834 54.6992 181.594 54.6797C180.334 54.6992 179.426 55.5391 179.426 56.9062ZM208.352 48.5664V50.2461C208.342 52.4727 208.342 54.9727 207.629 58.7422L205.129 58.4883C205.812 55.1289 205.842 52.6289 205.852 50.5391H195.383V48.5664H208.352ZM193.703 62.6289V60.5977H199.504V54.4844H201.984V60.5977H209.914V62.6289H193.703ZM139.445 81.9023V88.8359H136.945V83.9141H127.219V81.9023H139.445ZM125.578 80.2227V71.9805H128.078V78.1621C130.373 78.1133 132.863 77.9082 135.441 77.4102L135.734 79.4219C132.678 80.0273 129.797 80.2227 127.121 80.2227H125.578ZM136.945 81.1797V71.043H139.445V81.1797H136.945ZM145.031 72.7227V82.4004C146.662 82.3711 148.166 82.2539 149.836 81.9023L150.168 83.9922C147.98 84.4707 146.066 84.5488 143.781 84.5391H142.531V72.7227H145.031ZM147.531 78.6602V76.6484H151.086V71.3555H153.449V88.0156H151.086V78.6602H147.531ZM154.914 88.7969V71.0234H157.258V88.7969H154.914ZM174.016 71.043V81.082H171.516V71.043H174.016ZM159.406 76.1406C159.406 73.6016 161.496 71.8438 164.27 71.8438C167.033 71.8438 169.123 73.6016 169.133 76.1406C169.123 78.582 167.033 80.3789 164.27 80.3789C161.496 80.3789 159.406 78.582 159.406 76.1406ZM161.848 76.1406C161.828 77.459 162.844 78.2891 164.27 78.2891C165.656 78.2891 166.662 77.459 166.672 76.1406C166.662 74.7441 165.656 73.9336 164.27 73.9336C162.844 73.9336 161.828 74.7441 161.848 76.1406ZM162.102 88.6016V81.8828H174.016V88.6016H162.102ZM164.562 86.6094H171.574V83.8555H164.562V86.6094ZM187.922 75.8672C187.912 78.7383 189.396 81.8145 192.375 83.0547L191.027 85.0078C188.938 84.1191 187.492 82.3516 186.691 80.2031C185.891 82.5371 184.416 84.4902 182.316 85.457L180.891 83.4844C183.84 82.166 185.363 78.875 185.363 75.8672V74.7734H181.594V72.7422H191.633V74.7734H187.922V75.8672ZM193.391 88.7969V71.0234H195.91V88.7969H193.391ZM203.215 72.2734C205.617 72.2734 207.414 74.2461 207.766 77.4492H210.852V71.0234H213.312V88.8359H210.852V79.4414H207.795C207.531 82.8594 205.695 84.9492 203.215 84.9492C200.52 84.9492 198.586 82.5078 198.605 78.6016C198.586 74.7246 200.52 72.2734 203.215 72.2734ZM200.988 78.6016C200.979 81.248 201.887 82.6934 203.215 82.6836C204.553 82.6934 205.441 81.248 205.441 78.6016C205.441 75.9648 204.553 74.5195 203.215 74.5195C201.887 74.5195 200.979 75.9648 200.988 78.6016ZM226.105 72.1562V74.1094H222.629C222.658 75.4082 223.977 76.6582 226.691 77.0391L225.695 78.9531C223.635 78.6113 222.189 77.7422 221.379 76.5801C220.559 77.8398 219.064 78.7676 216.848 79.1484L215.852 77.2539C218.703 76.8242 220.031 75.5059 220.07 74.1094H216.594V72.1562H226.105ZM215.52 80.2031C218.781 80.2031 223.225 80.1641 227.062 79.6367L227.199 81.4727C225.646 81.7461 224.055 81.9219 222.492 82.0391V88.2695H219.973V82.166C218.488 82.2246 217.082 82.2344 215.832 82.2344L215.52 80.2031ZM224.621 84.9688V83.0938H228.234V71.043H230.773V88.7969H228.234V84.9688H224.621Z" fill="black"/>
</svg>
