<svg width="314" height="240" viewBox="0 0 314 240" fill="none" xmlns="http://www.w3.org/2000/svg">
<g filter="url(#filter0_bd_46_4316)">
<g clip-path="url(#clip0_46_4316)">
<rect x="32" y="32" width="250" height="176" rx="12" fill="#B2B2B2"/>
<path d="M143.779 47.9121V60.1621H142.549V47.9121H143.779ZM133.211 56.6211C135.809 55.0762 137.053 53.0186 137.278 50.4961H133.785V49.4297H138.57C138.563 50.626 138.399 51.7676 138.023 52.834H139.965V48.2266H141.195V59.5605H139.965V53.873H137.572C136.848 55.2949 135.679 56.5391 133.949 57.5508L133.211 56.6211ZM155.51 47.9258V54.8984H154.211V47.9258H155.51ZM145.598 51.4395C145.604 49.71 146.985 48.5342 148.865 48.541C150.738 48.5342 152.119 49.71 152.119 51.4395C152.119 53.1211 150.738 54.3105 148.865 54.3105C146.985 54.3105 145.604 53.1211 145.598 51.4395ZM146.869 51.4395C146.862 52.4922 147.703 53.2168 148.865 53.2168C150.014 53.2168 150.848 52.4922 150.848 51.4395C150.848 50.3525 150.014 49.6279 148.865 49.6348C147.703 49.6279 146.862 50.3525 146.869 51.4395ZM147.457 60.0117V55.5137H155.51V60.0117H147.457ZM148.742 58.959H154.238V56.5527H148.742V58.959ZM167.992 47.9121V60.1621H166.748V47.9121H167.992ZM157.588 53.2031C157.588 50.5508 158.627 48.8896 160.227 48.8965C161.717 48.8896 162.722 50.3047 162.872 52.6016H164.26V48.1445H165.504V59.5605H164.26V53.6543H162.879C162.763 56.0469 161.744 57.5303 160.227 57.5234C158.627 57.5303 157.588 55.8623 157.588 53.2031ZM158.791 53.2031C158.791 55.1514 159.345 56.2998 160.227 56.293C161.129 56.2998 161.689 55.1514 161.689 53.2031C161.689 51.248 161.129 50.1064 160.227 50.1133C159.345 50.1064 158.791 51.248 158.791 53.2031ZM173.967 51.0293C173.967 53.2715 175.225 55.5068 177.098 56.3477L176.305 57.3867C174.917 56.6895 173.864 55.3086 173.324 53.6338C172.784 55.3975 171.718 56.8877 170.303 57.6191L169.482 56.5664C171.383 55.6572 172.647 53.2988 172.654 51.0293V48.9375H173.967V51.0293ZM175.744 53.0391V51.9863H178.479V47.9121H179.764V60.1895H178.479V53.0391H175.744Z" fill="black"/>
<path d="M105 53.0588L108.862 57.5L115 50.5" stroke="#1400F5" stroke-linecap="round"/>
<path d="M282 75.5H32V76.5H282V75.5Z" fill="#F1F1F1" mask="url(#path-2-inside-1_46_4316)"/>
<path d="M143.451 91.9121V98.2832H142.166V96.8203H139.486V97.832H133.84V92.4727H135.139V94.127H138.201V92.4727H139.486V93.5938H142.166V91.9121H143.451ZM135.139 96.793H138.201V95.125H135.139V96.793ZM135.439 99.8418V98.8301H143.451V101.838H136.766V102.973H143.889V104.012H135.467V100.867H142.166V99.8418H135.439ZM139.486 95.8223H142.166V94.5918H139.486V95.8223ZM155.564 91.9121V99.1445H154.266V97.3262H151.6V98.3242H145.912V92.8281H151.6V93.8398H154.266V91.9121H155.564ZM147.197 97.2852H150.328V93.8672H147.197V97.2852ZM147.32 101.824C147.313 100.341 148.886 99.4795 151.463 99.4863C154.026 99.4795 155.599 100.341 155.605 101.824C155.599 103.301 154.026 104.142 151.463 104.135C148.886 104.142 147.313 103.301 147.32 101.824ZM148.605 101.824C148.599 102.645 149.665 103.13 151.463 103.137C153.247 103.13 154.313 102.645 154.32 101.824C154.313 100.963 153.247 100.491 151.463 100.484C149.665 100.491 148.599 100.963 148.605 101.824ZM151.6 96.2734H154.266V94.8789H151.6V96.2734ZM163.029 92.6504C165.6 92.6504 167.555 94.0107 167.555 96.0684C167.555 98.1396 165.6 99.4932 163.029 99.4863C160.466 99.4932 158.511 98.1396 158.518 96.0684C158.511 94.0107 160.466 92.6504 163.029 92.6504ZM157.451 102.576V101.496H168.662V102.576H157.451ZM159.762 96.0684C159.755 97.4971 161.149 98.4199 163.029 98.4199C164.902 98.4199 166.29 97.4971 166.297 96.0684C166.29 94.6465 164.902 93.6963 163.029 93.7031C161.149 93.6963 159.755 94.6465 159.762 96.0684ZM180.762 101.605V102.699H169.551V101.605H174.486V99.459H170.918V95.5625H178.109V93.8398H170.891V92.7734H179.395V96.6016H172.203V98.3926H179.682V99.459H175.771V101.605H180.762Z" fill="black"/>
<path d="M282 119.5H32V120.5H282V119.5Z" fill="#F1F1F1" mask="url(#path-6-inside-2_46_4316)"/>
<path d="M143.383 135.912V148.162H142.084V135.912H143.383ZM133.32 144.826C134.332 144.819 135.48 144.812 136.684 144.785V143.555C135.255 143.363 134.325 142.522 134.332 141.326C134.325 139.945 135.528 139.036 137.299 139.029C139.09 139.036 140.313 139.945 140.32 141.326C140.313 142.509 139.391 143.343 137.969 143.548V144.737C139.104 144.683 140.252 144.601 141.332 144.457L141.428 145.428C138.707 145.879 135.74 145.913 133.498 145.906L133.32 144.826ZM133.58 138.414V137.375H136.684V135.939H137.982V137.375H141.059V138.414H133.58ZM135.562 141.326C135.549 142.105 136.273 142.591 137.299 142.584C138.358 142.591 139.076 142.105 139.076 141.326C139.076 140.54 138.358 140.041 137.299 140.041C136.273 140.041 135.549 140.54 135.562 141.326ZM149.604 139.029C149.59 141.196 150.854 143.418 152.68 144.307L151.873 145.346C150.54 144.648 149.508 143.281 148.968 141.647C148.421 143.384 147.348 144.854 145.953 145.578L145.146 144.525C147.026 143.623 148.298 141.271 148.305 139.029V136.938H149.604V139.029ZM153.596 148.162V135.912H154.895V140.793H156.863V141.9H154.895V148.162H153.596ZM167.992 135.912V148.162H166.748V135.912H167.992ZM157.588 141.203C157.588 138.551 158.627 136.89 160.227 136.896C161.717 136.89 162.722 138.305 162.872 140.602H164.26V136.145H165.504V147.561H164.26V141.654H162.879C162.763 144.047 161.744 145.53 160.227 145.523C158.627 145.53 157.588 143.862 157.588 141.203ZM158.791 141.203C158.791 143.151 159.345 144.3 160.227 144.293C161.129 144.3 161.689 143.151 161.689 141.203C161.689 139.248 161.129 138.106 160.227 138.113C159.345 138.106 158.791 139.248 158.791 141.203ZM173.967 139.029C173.967 141.271 175.225 143.507 177.098 144.348L176.305 145.387C174.917 144.689 173.864 143.309 173.324 141.634C172.784 143.397 171.718 144.888 170.303 145.619L169.482 144.566C171.383 143.657 172.647 141.299 172.654 139.029V136.938H173.967V139.029ZM175.744 141.039V139.986H178.479V135.912H179.764V148.189H178.479V141.039H175.744Z" fill="black"/>
<path d="M282 163.5H32V164.5H282V163.5Z" fill="#F1F1F1" mask="url(#path-9-inside-3_46_4316)"/>
<path d="M138.399 186.939V187.992H133.396V192.148H132.124V187.992H127.188V186.939H138.399ZM128.597 185.381V180.568H136.991V185.381H128.597ZM129.868 184.369H135.692V181.607H129.868V184.369ZM143.813 183.521C143.807 185.572 145.153 187.691 147.04 188.498L146.329 189.51C144.887 188.874 143.738 187.521 143.171 185.887C142.604 187.637 141.455 189.127 140.026 189.824L139.274 188.799C141.12 187.931 142.487 185.634 142.501 183.521V182.223H139.698V181.143H146.603V182.223H143.813V183.521ZM148.147 192.162V179.912H149.446V192.162H148.147ZM155.749 181.744C155.742 183.46 156.856 184.991 158.716 185.6L158.005 186.611C156.658 186.119 155.667 185.176 155.134 183.945C154.607 185.347 153.541 186.447 152.058 186.98L151.36 185.941C153.315 185.271 154.45 183.638 154.464 181.799V180.596H155.749V181.744ZM153.37 189.824C153.363 188.341 154.936 187.479 157.513 187.486C160.076 187.479 161.648 188.341 161.655 189.824C161.648 191.301 160.076 192.142 157.513 192.135C154.936 192.142 153.363 191.301 153.37 189.824ZM154.655 189.824C154.648 190.638 155.715 191.116 157.513 191.109C159.297 191.116 160.363 190.638 160.37 189.824C160.363 188.983 159.297 188.498 157.513 188.498C155.715 188.498 154.648 188.983 154.655 189.824ZM157.731 183.467V182.4H160.315V179.912H161.614V187.145H160.315V183.467H157.731ZM169.079 180.65C171.649 180.65 173.604 182.011 173.604 184.068C173.604 186.14 171.649 187.493 169.079 187.486C166.516 187.493 164.561 186.14 164.567 184.068C164.561 182.011 166.516 180.65 169.079 180.65ZM163.501 190.576V189.496H174.712V190.576H163.501ZM165.812 184.068C165.805 185.497 167.199 186.42 169.079 186.42C170.952 186.42 172.34 185.497 172.347 184.068C172.34 182.646 170.952 181.696 169.079 181.703C167.199 181.696 165.805 182.646 165.812 184.068ZM186.812 189.605V190.699H175.601V189.605H180.536V187.459H176.968V183.562H184.159V181.84H176.94V180.773H185.444V184.602H178.253V186.393H185.731V187.459H181.821V189.605H186.812Z" fill="black"/>
</g>
</g>
<defs>
<filter id="filter0_bd_46_4316" x="-118" y="-118" width="550" height="476" filterUnits="userSpaceOnUse" color-interpolation-filters="sRGB">
<feFlood flood-opacity="0" result="BackgroundImageFix"/>
<feGaussianBlur in="BackgroundImageFix" stdDeviation="75"/>
<feComposite in2="SourceAlpha" operator="in" result="effect1_backgroundBlur_46_4316"/>
<feColorMatrix in="SourceAlpha" type="matrix" values="0 0 0 0 0 0 0 0 0 0 0 0 0 0 0 0 0 0 127 0" result="hardAlpha"/>
<feOffset/>
<feGaussianBlur stdDeviation="16"/>
<feComposite in2="hardAlpha" operator="out"/>
<feColorMatrix type="matrix" values="0 0 0 0 0 0 0 0 0 0 0 0 0 0 0 0 0 0 0.2 0"/>
<feBlend mode="normal" in2="effect1_backgroundBlur_46_4316" result="effect2_dropShadow_46_4316"/>
<feBlend mode="normal" in="SourceGraphic" in2="effect2_dropShadow_46_4316" result="shape"/>
</filter>
<clipPath id="clip0_46_4316">
<rect x="32" y="32" width="250" height="176" rx="12" fill="white"/>
</clipPath>
</defs>
</svg>
