<svg width="164" height="50" viewBox="0 0 164 50" fill="none" xmlns="http://www.w3.org/2000/svg">
<rect width="164" height="50" rx="8" fill="#FEE500"/>
<path d="M50.76 19.32H57.24C57.24 23.48 55.832 27.272 50.696 29.832L49.976 28.824C52.632 27.512 54.216 25.88 55.096 23.96L50.264 24.424L50.04 23.272L55.496 22.904C55.736 22.104 55.88 21.272 55.928 20.392H50.76V19.32ZM63.192 23.656V24.744H60.888V32.184H59.576V17.832H60.888V23.656H63.192ZM66.0068 28.968V27.912H75.8628V32.2H74.5508V28.968H66.0068ZM71.7028 25.576H77.5428V26.632H64.5508V25.576H70.3908V24.056H66.2628V18.216H75.9428V19.24H67.5748V20.6H75.5588V21.592H67.5748V23.032H76.0228V24.056H71.7028V25.576ZM85.7655 18.728C88.7415 18.728 90.9815 20.312 90.9815 22.696C90.9815 25.096 88.7415 26.664 85.7655 26.664C82.7895 26.664 80.5495 25.096 80.5495 22.696C80.5495 20.312 82.7895 18.728 85.7655 18.728ZM85.7655 19.8C83.5095 19.8 81.7975 20.968 81.7975 22.696C81.7975 24.44 83.5095 25.592 85.7655 25.592C88.0375 25.592 89.7335 24.44 89.7335 22.696C89.7335 20.968 88.0375 19.8 85.7655 19.8ZM79.2695 29.192H92.3095V30.28H79.2695V29.192ZM101.156 29.336H107.028V30.408H93.9883V29.336H99.8283V26.632H95.6203V22.2H104.132V19.96H95.5883V18.888H105.412V23.256H96.9163V25.576H105.748V26.632H101.156V29.336ZM122.739 19.784V19.624H114.259V18.568H124.035V19.784C124.035 20.936 124.035 22.104 123.635 23.576L122.355 23.432C122.739 21.96 122.739 20.904 122.739 19.784ZM119.139 31.144C121.395 31.144 122.835 30.536 122.835 29.544C122.835 28.52 121.395 27.912 119.139 27.912C116.899 27.912 115.459 28.52 115.459 29.544C115.459 30.536 116.899 31.144 119.139 31.144ZM119.139 26.904C122.195 26.904 124.147 27.88 124.147 29.544C124.147 31.176 122.195 32.168 119.139 32.168C116.083 32.168 114.147 31.176 114.147 29.544C114.147 27.88 116.083 26.904 119.139 26.904ZM119.347 24.52H125.651V25.576H112.739V24.52H118.035V21.768H119.347V24.52ZM133.89 19.464C131.714 19.464 130.226 20.264 130.226 21.528C130.226 22.792 131.714 23.608 133.89 23.608C136.082 23.608 137.57 22.792 137.57 21.528C137.57 20.264 136.082 19.464 133.89 19.464ZM133.89 24.664C130.914 24.664 128.882 23.448 128.882 21.528C128.882 19.608 130.914 18.408 133.89 18.408C136.882 18.408 138.914 19.608 138.914 21.528C138.914 23.448 136.882 24.664 133.89 24.664ZM140.418 26.008V27.08H137.026V32.184H135.698V27.08H132.098V32.184H130.77V27.08H127.426V26.008H140.418Z" fill="#1A1A1A"/>
<path d="M30.5 16C24.7003 16 20 19.4662 20 23.7444C20 26.5279 21.9923 28.9686 24.9808 30.334C24.7616 31.0979 24.1861 33.1055 24.0701 33.534C23.9282 34.0664 24.278 34.0604 24.5101 33.9175C24.6907 33.8047 27.3874 32.0934 28.5512 31.3551C29.1831 31.4423 29.8343 31.4889 30.5 31.4889C36.2997 31.4889 41 28.0227 41 23.7444C41 19.4662 36.2997 16 30.5 16Z" fill="#1A1A1A"/>
</svg>
