<svg width="164" height="50" viewBox="0 0 164 50" fill="none" xmlns="http://www.w3.org/2000/svg">
<rect x="0.5" y="0.5" width="163" height="49" rx="7.5" fill="#F1F1F1" stroke="#AFAFAF"/>
<path d="M65.624 17.832V26.664H64.312V17.832H65.624ZM62.568 24.264L62.712 25.32C60.36 25.704 58.408 25.784 55.752 25.784H54.6V21.688H59.784V19.8H54.552V18.728H61.08V22.696H55.88V24.712C58.424 24.712 60.296 24.632 62.568 24.264ZM60.872 31.128C63.08 31.128 64.392 30.552 64.392 29.56C64.392 28.584 63.08 28.008 60.872 28.008C58.696 28.008 57.384 28.584 57.384 29.56C57.384 30.552 58.696 31.128 60.872 31.128ZM60.872 26.968C63.864 26.968 65.704 27.912 65.704 29.56C65.704 31.224 63.864 32.168 60.872 32.168C57.896 32.168 56.072 31.224 56.072 29.56C56.072 27.912 57.896 26.968 60.872 26.968ZM69.7508 23.656L78.6468 23.272C78.6788 22.52 78.6788 21.784 78.6788 21.048V20.36H70.1188V19.288H79.9588V21.048C79.9588 23.176 79.9588 25.112 79.3348 28.056L78.0388 27.928C78.3588 26.552 78.5188 25.368 78.5988 24.264L69.9428 24.744L69.7508 23.656ZM68.5828 29.112H81.5588V30.184H68.5828V29.112ZM90.4375 29.336H96.3095V30.408H83.2695V29.336H89.1095V26.632H84.9015V22.2H93.4135V19.96H84.8695V18.888H94.6935V23.256H86.1975V25.576H95.0295V26.632H90.4375V29.336ZM112.021 19.784V19.624H103.541V18.568H113.317V19.784C113.317 20.936 113.317 22.104 112.917 23.576L111.637 23.432C112.021 21.96 112.021 20.904 112.021 19.784ZM108.421 31.144C110.677 31.144 112.117 30.536 112.117 29.544C112.117 28.52 110.677 27.912 108.421 27.912C106.181 27.912 104.741 28.52 104.741 29.544C104.741 30.536 106.181 31.144 108.421 31.144ZM108.421 26.904C111.477 26.904 113.429 27.88 113.429 29.544C113.429 31.176 111.477 32.168 108.421 32.168C105.365 32.168 103.429 31.176 103.429 29.544C103.429 27.88 105.365 26.904 108.421 26.904ZM108.629 24.52H114.933V25.576H102.021V24.52H107.317V21.768H108.629V24.52ZM123.171 19.464C120.995 19.464 119.507 20.264 119.507 21.528C119.507 22.792 120.995 23.608 123.171 23.608C125.363 23.608 126.851 22.792 126.851 21.528C126.851 20.264 125.363 19.464 123.171 19.464ZM123.171 24.664C120.195 24.664 118.163 23.448 118.163 21.528C118.163 19.608 120.195 18.408 123.171 18.408C126.163 18.408 128.195 19.608 128.195 21.528C128.195 23.448 126.163 24.664 123.171 24.664ZM129.699 26.008V27.08H126.307V32.184H124.979V27.08H121.379V32.184H120.051V27.08H116.707V26.008H129.699Z" fill="#8B8B8B"/>
<g clip-path="url(#clip0_95_4054)">
<path d="M35.3334 15.8333H25.3334C24.4167 15.8333 23.6667 16.5833 23.6667 17.4999V29.1666H25.3334V17.4999H35.3334V15.8333ZM37.8334 19.1666H28.6667C27.7501 19.1666 27.0001 19.9166 27.0001 20.8333V32.4999C27.0001 33.4166 27.7501 34.1666 28.6667 34.1666H37.8334C38.7501 34.1666 39.5001 33.4166 39.5001 32.4999V20.8333C39.5001 19.9166 38.7501 19.1666 37.8334 19.1666ZM37.8334 32.4999H28.6667V20.8333H37.8334V32.4999Z" fill="#8B8B8B"/>
</g>
<defs>
<clipPath id="clip0_95_4054">
<rect width="20" height="20" fill="white" transform="translate(22 15)"/>
</clipPath>
</defs>
</svg>
