<svg width="230" height="63" viewBox="0 0 230 63" fill="none" xmlns="http://www.w3.org/2000/svg">
<g filter="url(#filter0_d_95_4053)">
<rect x="3" width="224" height="56" rx="28" fill="#1400F5"/>
</g>
<path d="M59.957 20.6211V28.6719H57.7246V27.4414H54.0684V25.7363H57.7246V24.3301H54.2441C53.251 26.7295 50.9658 28.2676 47.4238 29.041L46.668 27.2129C50.333 26.4922 52.0205 24.9717 52.3193 23.0469H47.5645V21.2363H54.8066C54.8066 21.7197 54.7715 22.1855 54.7012 22.625H57.7246V20.6211H59.957ZM49.3223 31.0098V29.252H59.957V33.6289H51.5898V34.6836H60.3086V36.459H49.3398V31.9766H57.707V31.0098H49.3223ZM71.0312 22.2207V23.5039C71.0137 25.0068 71.0137 26.9756 70.5918 29.6387L68.377 29.4629C68.7461 27.1426 68.7812 25.4287 68.7988 24.0137H62.7344V22.2207H71.0312ZM61.8906 31.5547C62.7871 31.5547 63.7891 31.5459 64.8262 31.5195V26.8086H67.041V31.4492C68.6143 31.3877 70.2051 31.2734 71.6816 31.0801L71.8223 32.75C68.5264 33.3037 64.9053 33.3652 62.1016 33.3477L61.8906 31.5547ZM72.4375 36.6172V20.6211H74.7051V27.0547H76.8848V28.918H74.7051V36.6172H72.4375ZM95.1309 20.6387V30.3594H92.8809V20.6387H95.1309ZM82.5625 23.3809V21.5703H89.9805V26.4219H84.7773V27.8633C87.4492 27.8457 89.3389 27.749 91.4922 27.4238L91.7734 29.2168C89.3213 29.6211 87.1592 29.6914 83.9863 29.6914H82.5801V24.752H87.748V23.3809H82.5625ZM84.1973 33.6113C84.1973 31.6953 86.2803 30.6143 89.6992 30.623C93.127 30.6143 95.2275 31.6953 95.2363 33.6113C95.2275 35.5098 93.127 36.626 89.6992 36.6172C86.2803 36.626 84.1973 35.5098 84.1973 33.6113ZM86.4297 33.6113C86.4297 34.4639 87.5547 34.877 89.6992 34.877C91.8525 34.877 92.9775 34.4639 92.9863 33.6113C92.9775 32.7764 91.8525 32.3545 89.6992 32.3633C87.5547 32.3545 86.4297 32.7764 86.4297 33.6113ZM110.389 22.0273V23.8906C110.38 26.2197 110.38 28.4346 109.65 31.9062L107.418 31.6953C107.734 30.3682 107.919 29.1904 108.033 28.1094L98.752 28.5664L98.4707 26.7734L108.147 26.4219C108.183 25.543 108.191 24.7168 108.191 23.8906V23.8203H98.9629V22.0273H110.389ZM97.293 34.7012V32.873H111.883V34.7012H97.293ZM131.588 28.5488V30.3594H116.998V28.5488H123.15V27.1953H118.861V21.0078H121.076V22.4668H127.492V21.0078H129.725V27.1953H125.4V28.5488H131.588ZM118.615 33.2246V31.4492H129.812V36.6172H127.58V33.2246H118.615ZM121.076 25.4375H127.492V24.1191H121.076V25.4375ZM138.443 24.2422C138.435 27.1074 139.656 29.999 142.223 31.2383L140.869 33.0312C139.155 32.1787 137.995 30.5967 137.336 28.6719C136.633 30.7373 135.402 32.4336 133.592 33.3301L132.203 31.5195C134.919 30.2715 136.193 27.2129 136.193 24.2422V21.8516H138.443V24.2422ZM142.926 36.6172V20.6211H145.176V26.791H147.531V28.6895H145.176V36.6172H142.926ZM164.881 20.6211V26.8789H167.236V28.7246H164.881V36.6172H162.666V20.6211H164.881ZM152.172 24.8047V23.0117H155.793V20.8672H158.043V23.0117H161.576V24.8047H152.172ZM152.822 29.5156C152.813 27.2832 154.554 25.6924 156.918 25.7012C159.247 25.6924 160.996 27.2832 160.996 29.5156C160.996 31.748 159.247 33.3213 156.918 33.3301C154.554 33.3213 152.813 31.748 152.822 29.5156ZM154.967 29.5156C154.967 30.7549 155.784 31.4932 156.918 31.4844C158.034 31.4932 158.852 30.7549 158.852 29.5156C158.852 28.2852 158.034 27.5293 156.918 27.5117C155.784 27.5293 154.967 28.2852 154.967 29.5156ZM181.264 20.6211V36.6172H178.996V20.6211H181.264ZM167.869 32.082C172 30.1309 173.819 27.5996 174.18 24.0488H168.73V22.291H176.465C176.456 27.1426 174.76 31.1768 169.047 33.875L167.869 32.082Z" fill="#FCFCFC"/>
<defs>
<filter id="filter0_d_95_4053" x="0" y="0" width="230" height="63" filterUnits="userSpaceOnUse" color-interpolation-filters="sRGB">
<feFlood flood-opacity="0" result="BackgroundImageFix"/>
<feColorMatrix in="SourceAlpha" type="matrix" values="0 0 0 0 0 0 0 0 0 0 0 0 0 0 0 0 0 0 127 0" result="hardAlpha"/>
<feOffset dy="4"/>
<feGaussianBlur stdDeviation="1.5"/>
<feComposite in2="hardAlpha" operator="out"/>
<feColorMatrix type="matrix" values="0 0 0 0 0 0 0 0 0 0 0 0 0 0 0 0 0 0 0.05 0"/>
<feBlend mode="normal" in2="BackgroundImageFix" result="effect1_dropShadow_95_4053"/>
<feBlend mode="normal" in="SourceGraphic" in2="effect1_dropShadow_95_4053" result="shape"/>
</filter>
</defs>
</svg>
