<svg width="224" height="63" viewBox="0 0 224 63" fill="none" xmlns="http://www.w3.org/2000/svg">
<g filter="url(#filter0_d_95_3961)">
<rect x="19" width="185" height="56" rx="28" fill="#1400F5"/>
</g>
<path d="M56.957 20.6211V28.6719H54.7246V27.4414H51.0684V25.7363H54.7246V24.3301H51.2441C50.251 26.7295 47.9658 28.2676 44.4238 29.041L43.668 27.2129C47.333 26.4922 49.0205 24.9717 49.3193 23.0469H44.5645V21.2363H51.8066C51.8066 21.7197 51.7715 22.1855 51.7012 22.625H54.7246V20.6211H56.957ZM46.3223 31.0098V29.252H56.957V33.6289H48.5898V34.6836H57.3086V36.459H46.3398V31.9766H54.707V31.0098H46.3223ZM68.0312 22.2207V23.5039C68.0137 25.0068 68.0137 26.9756 67.5918 29.6387L65.377 29.4629C65.7461 27.1426 65.7812 25.4287 65.7988 24.0137H59.7344V22.2207H68.0312ZM58.8906 31.5547C59.7871 31.5547 60.7891 31.5459 61.8262 31.5195V26.8086H64.041V31.4492C65.6143 31.3877 67.2051 31.2734 68.6816 31.0801L68.8223 32.75C65.5264 33.3037 61.9053 33.3652 59.1016 33.3477L58.8906 31.5547ZM69.4375 36.6172V20.6211H71.7051V27.0547H73.8848V28.918H71.7051V36.6172H69.4375ZM92.1309 20.6387V30.3594H89.8809V20.6387H92.1309ZM79.5625 23.3809V21.5703H86.9805V26.4219H81.7773V27.8633C84.4492 27.8457 86.3389 27.749 88.4922 27.4238L88.7734 29.2168C86.3213 29.6211 84.1592 29.6914 80.9863 29.6914H79.5801V24.752H84.748V23.3809H79.5625ZM81.1973 33.6113C81.1973 31.6953 83.2803 30.6143 86.6992 30.623C90.127 30.6143 92.2275 31.6953 92.2363 33.6113C92.2275 35.5098 90.127 36.626 86.6992 36.6172C83.2803 36.626 81.1973 35.5098 81.1973 33.6113ZM83.4297 33.6113C83.4297 34.4639 84.5547 34.877 86.6992 34.877C88.8525 34.877 89.9775 34.4639 89.9863 33.6113C89.9775 32.7764 88.8525 32.3545 86.6992 32.3633C84.5547 32.3545 83.4297 32.7764 83.4297 33.6113ZM107.389 22.0273V23.8906C107.38 26.2197 107.38 28.4346 106.65 31.9062L104.418 31.6953C104.734 30.3682 104.919 29.1904 105.033 28.1094L95.752 28.5664L95.4707 26.7734L105.147 26.4219C105.183 25.543 105.191 24.7168 105.191 23.8906V23.8203H95.9629V22.0273H107.389ZM94.293 34.7012V32.873H108.883V34.7012H94.293ZM128.588 28.5488V30.3594H113.998V28.5488H120.15V27.1953H115.861V21.0078H118.076V22.4668H124.492V21.0078H126.725V27.1953H122.4V28.5488H128.588ZM115.615 33.2246V31.4492H126.812V36.6172H124.58V33.2246H115.615ZM118.076 25.4375H124.492V24.1191H118.076V25.4375ZM135.443 24.2422C135.435 27.1074 136.656 29.999 139.223 31.2383L137.869 33.0312C136.155 32.1787 134.995 30.5967 134.336 28.6719C133.633 30.7373 132.402 32.4336 130.592 33.3301L129.203 31.5195C131.919 30.2715 133.193 27.2129 133.193 24.2422V21.8516H135.443V24.2422ZM139.926 36.6172V20.6211H142.176V26.791H144.531V28.6895H142.176V36.6172H139.926ZM161.881 20.6211V26.8789H164.236V28.7246H161.881V36.6172H159.666V20.6211H161.881ZM149.172 24.8047V23.0117H152.793V20.8672H155.043V23.0117H158.576V24.8047H149.172ZM149.822 29.5156C149.813 27.2832 151.554 25.6924 153.918 25.7012C156.247 25.6924 157.996 27.2832 157.996 29.5156C157.996 31.748 156.247 33.3213 153.918 33.3301C151.554 33.3213 149.813 31.748 149.822 29.5156ZM151.967 29.5156C151.967 30.7549 152.784 31.4932 153.918 31.4844C155.034 31.4932 155.852 30.7549 155.852 29.5156C155.852 28.2852 155.034 27.5293 153.918 27.5117C152.784 27.5293 151.967 28.2852 151.967 29.5156ZM178.264 20.6211V36.6172H175.996V20.6211H178.264ZM164.869 32.082C169 30.1309 170.819 27.5996 171.18 24.0488H165.73V22.291H173.465C173.456 27.1426 171.76 31.1768 166.047 33.875L164.869 32.082Z" fill="#FCFCFC"/>
<defs>
<filter id="filter0_d_95_3961" x="16" y="0" width="191" height="63" filterUnits="userSpaceOnUse" color-interpolation-filters="sRGB">
<feFlood flood-opacity="0" result="BackgroundImageFix"/>
<feColorMatrix in="SourceAlpha" type="matrix" values="0 0 0 0 0 0 0 0 0 0 0 0 0 0 0 0 0 0 127 0" result="hardAlpha"/>
<feOffset dy="4"/>
<feGaussianBlur stdDeviation="1.5"/>
<feComposite in2="hardAlpha" operator="out"/>
<feColorMatrix type="matrix" values="0 0 0 0 0 0 0 0 0 0 0 0 0 0 0 0 0 0 0.05 0"/>
<feBlend mode="normal" in2="BackgroundImageFix" result="effect1_dropShadow_95_3961"/>
<feBlend mode="normal" in="SourceGraphic" in2="effect1_dropShadow_95_3961" result="shape"/>
</filter>
</defs>
</svg>
