<svg width="335" height="229" viewBox="0 0 335 229" fill="none" xmlns="http://www.w3.org/2000/svg">
<g clip-path="url(#clip0_95_4008)">
<rect width="335" height="260" rx="8" fill="#DFE2FF"/>
<rect x="16.5" y="16.5" width="302" height="54" rx="7.5" fill="#FCFCFC" stroke="#DFE2FF"/>
<path d="M51.875 37.2344V41.2344H53.7969V42.875H51.875V47.7031H49.875V37.2344H51.875ZM41.0156 45.4375V38.2344H43V40.2969H45.9062V38.2344H47.9062V45.4375H41.0156ZM42.6562 51.1875V46.625H44.6406V49.5938H52.3906V51.1875H42.6562ZM43 43.875H45.9062V41.8281H43V43.875ZM59.9375 41.0938C59.9297 43.3906 61.1172 45.8516 63.5 46.8438L62.4219 48.4062C60.75 47.6953 59.5938 46.2812 58.9531 44.5625C58.3125 46.4297 57.1328 47.9922 55.4531 48.7656L54.3125 47.1875C56.6719 46.1328 57.8906 43.5 57.8906 41.0938V40.2188H54.875V38.5938H62.9062V40.2188H59.9375V41.0938ZM64.3125 51.4375V37.2188H66.3281V51.4375H64.3125ZM79.4688 37.2188V42.7812H81.5625V44.4219H79.4688V51.4375H77.5V37.2188H79.4688ZM68.1719 40.9375V39.3438H71.3906V37.4375H73.3906V39.3438H76.5312V40.9375H68.1719ZM68.75 45.125C68.7422 43.1406 70.2891 41.7266 72.3906 41.7344C74.4609 41.7266 76.0156 43.1406 76.0156 45.125C76.0156 47.1094 74.4609 48.5078 72.3906 48.5156C70.2891 48.5078 68.7422 47.1094 68.75 45.125ZM70.6562 45.125C70.6562 46.2266 71.3828 46.8828 72.3906 46.875C73.3828 46.8828 74.1094 46.2266 74.1094 45.125C74.1094 44.0312 73.3828 43.3594 72.3906 43.3438C71.3828 43.3594 70.6562 44.0312 70.6562 45.125ZM86.6875 38.1719C88.9453 38.1641 90.6172 39.6172 90.625 41.6562C90.6172 43.7031 88.9453 45.1484 86.6875 45.1562C84.4453 45.1484 82.7266 43.7031 82.7344 41.6562C82.7266 39.6172 84.4453 38.1641 86.6875 38.1719ZM82.1406 46.9375C84.6797 46.9453 88.1953 46.9141 91.2344 46.4844L91.3906 47.9219C88.2344 48.5391 84.8594 48.5625 82.375 48.5625L82.1406 46.9375ZM84.7188 41.6562C84.7109 42.7812 85.5625 43.4297 86.6875 43.4219C87.8203 43.4297 88.6797 42.7812 88.6875 41.6562C88.6797 40.5469 87.8203 39.8906 86.6875 39.8906C85.5625 39.8906 84.7109 40.5469 84.7188 41.6562ZM92.0469 51.4688V37.2188H94.0312V51.4688H92.0469ZM111.891 37.2188V51.4375H110V37.2188H111.891ZM99.2969 47.2812C101.391 45.9922 102.172 43.4453 102.172 41.0312V40.2656H99.8438V38.6719H106.25V40.2656H104.094V41.0312C104.086 43.3906 104.828 45.7812 106.906 46.9688L105.734 48.4375C104.461 47.6875 103.633 46.4219 103.148 44.8906C102.664 46.5469 101.805 47.9531 100.5 48.75L99.2969 47.2812ZM105.234 43.7031V42.0938H107.109V37.4531H108.984V50.7812H107.109V43.7031H105.234ZM124.797 37.2344V40.8438H126.609V42.5H124.797V46.1562H122.797V37.2344H124.797ZM113.391 44.0312C114.383 44.0312 115.531 44.0234 116.734 43.9922V43.0078C115.156 42.7188 114.117 41.7188 114.125 40.3594C114.117 38.75 115.594 37.6406 117.703 37.6406C119.789 37.6406 121.273 38.75 121.281 40.3594C121.273 41.6953 120.258 42.6875 118.734 42.9922V43.9141C119.852 43.8516 120.961 43.7656 122 43.625L122.172 45C119.25 45.5156 116 45.5625 113.594 45.5625L113.391 44.0312ZM115.141 48.9062C115.141 47.2734 117 46.3281 120 46.3281C123 46.3281 124.844 47.2734 124.844 48.9062C124.844 50.4766 123 51.4453 120 51.4375C117 51.4453 115.141 50.4766 115.141 48.9062ZM115.984 40.3594C115.969 41.1719 116.656 41.6406 117.703 41.6406C118.727 41.6406 119.406 41.1719 119.406 40.3594C119.406 39.5625 118.719 39.125 117.703 39.125C116.656 39.125 115.969 39.5625 115.984 40.3594ZM117.109 48.9062C117.094 49.5703 118.117 49.9219 120 49.9219C121.844 49.9219 122.867 49.5703 122.875 48.9062C122.867 48.1875 121.844 47.8438 120 47.8281C118.117 47.8438 117.094 48.1875 117.109 48.9062Z" fill="#1400F5"/>
<path d="M289 35L288 36H283V38H284V53C284 53.5222 284.191 54.0546 284.568 54.4316C284.945 54.8087 285.478 55 286 55H296C296.522 55 297.055 54.8087 297.432 54.4316C297.809 54.0546 298 53.5222 298 53V38H299V36H294L293 35H289ZM286 38H296V53H286V38ZM288 40V51H290V40H288ZM292 40V51H294V40H292Z" fill="#1400F5"/>
<rect x="16.5" y="79.5" width="302" height="54" rx="7.5" fill="#FCFCFC" stroke="#DFE2FF"/>
<path d="M53.3906 108.734V110.359H47.875V114.453H45.9062V110.359H40.4219V108.734H53.3906ZM41.0781 106.406C44.0312 106.078 45.6328 104.688 45.875 103.422H41.5938V101.859H45.9062V100.234H47.875V101.859H52.2031V103.422H47.9375C48.1562 104.672 49.7578 106.078 52.7031 106.406L51.9844 107.969C49.5703 107.695 47.8281 106.703 46.9062 105.414C45.9766 106.719 44.2266 107.695 41.7969 107.969L41.0781 106.406ZM62.4531 101.016V102.594H59.625C59.6328 104.266 60.6484 105.992 62.8906 106.734L61.9062 108.266C60.3359 107.773 59.25 106.742 58.6328 105.469C58 106.883 56.8672 108.023 55.1875 108.562L54.1719 106.984C56.5156 106.242 57.5781 104.359 57.5938 102.594H54.7344V101.016H62.4531ZM56.4688 110.906V109.312H66.2344V114.438H64.25V110.906H56.4688ZM62.0469 105.266V103.641H64.25V100.219H66.2344V108.688H64.25V105.266H62.0469ZM76.6094 113.156C74.2734 113.148 72.0391 111.75 72.0469 107.609C72.0547 103.789 73.875 101.531 76.7031 101.531C78.9766 101.531 80.5391 102.969 80.7656 104.828H78.4531C78.2656 104.039 77.6172 103.547 76.7031 103.547C75.1641 103.547 74.3594 104.93 74.3438 107.156H74.4531C74.9766 106.148 76.0938 105.562 77.3438 105.562C79.3828 105.562 80.8984 107.086 80.8906 109.219C80.8984 111.516 79.1641 113.164 76.6094 113.156ZM74.5781 109.281C74.5938 110.391 75.4375 111.305 76.5938 111.297C77.7578 111.305 78.6094 110.422 78.6094 109.281C78.6094 108.148 77.7734 107.273 76.625 107.266C75.4688 107.273 74.5938 108.18 74.5781 109.281ZM86.9062 113.156C84.0703 113.156 82.3594 111.047 82.3594 107.344C82.3594 103.648 84.0859 101.531 86.9062 101.531C89.7266 101.531 91.4531 103.648 91.4531 107.344C91.4531 111.062 89.7344 113.156 86.9062 113.156ZM84.7656 107.344C84.75 109.953 85.5938 111.219 86.9062 111.219C88.2188 111.219 89.0547 109.953 89.0469 107.344C89.0547 104.758 88.2109 103.461 86.9062 103.453C85.6016 103.461 84.7656 104.758 84.7656 107.344ZM104.516 100.234V110.453H102.516V100.234H104.516ZM92.8281 104.719C92.8281 102.633 94.5312 101.133 96.7188 101.141C98.8984 101.133 100.602 102.633 100.609 104.719C100.602 106.836 98.8984 108.328 96.7188 108.328C94.5312 108.328 92.8281 106.836 92.8281 104.719ZM94.7812 104.719C94.7656 105.906 95.6016 106.594 96.7188 106.594C97.7969 106.594 98.6328 105.906 98.6406 104.719C98.6328 103.562 97.7969 102.867 96.7188 102.875C95.6016 102.867 94.7656 103.562 94.7812 104.719ZM94.9844 114.188V109.422H97V112.594H104.891V114.188H94.9844ZM119.438 107.516V109.078H114.078V111.375H112.109V109.078H106.422V107.516H119.438ZM107.953 114.188V110.25H109.922V112.594H118V114.188H107.953ZM108.094 106.516V100.672H110.062V102.156H115.766V100.672H117.75V106.516H108.094ZM110.062 104.938H115.766V103.641H110.062V104.938Z" fill="#1400F5"/>
<path d="M289 98L288 99H283V101H284V116C284 116.522 284.191 117.055 284.568 117.432C284.945 117.809 285.478 118 286 118H296C296.522 118 297.055 117.809 297.432 117.432C297.809 117.055 298 116.522 298 116V101H299V99H294L293 98H289ZM286 101H296V116H286V101ZM288 103V114H290V103H288ZM292 103V114H294V103H292Z" fill="#1400F5"/>
<rect x="16.5" y="142.5" width="302" height="54" rx="7.5" fill="#FCFCFC" stroke="#DFE2FF"/>
<path d="M52.3281 163.219V177.469H50.3125V163.219H52.3281ZM40.8438 169.281C40.8359 166.18 42.4219 164.219 44.6094 164.219C46.75 164.219 48.3438 166.18 48.3438 169.281C48.3438 172.406 46.75 174.359 44.6094 174.359C42.4219 174.359 40.8359 172.406 40.8438 169.281ZM42.7656 169.281C42.7578 171.398 43.5 172.555 44.6094 172.547C45.6875 172.555 46.4141 171.398 46.4219 169.281C46.4141 167.172 45.6875 166.016 44.6094 166.016C43.5 166.016 42.7578 167.172 42.7656 169.281ZM67.2188 169.453V171.094H61.7031V172.438H59.7188V171.094H54.25V169.453H67.2188ZM55.0781 175.875C58.1641 175.617 59.6641 174.383 59.6719 173.266V172.984H61.7188V173.266C61.7109 174.438 63.1562 175.617 66.2969 175.875L65.6875 177.375C63.2578 177.156 61.5469 176.359 60.6797 175.211C59.8203 176.336 58.1406 177.156 55.75 177.375L55.0781 175.875ZM55.5469 166.062C55.5469 164.352 57.5703 163.391 60.7344 163.391C63.9141 163.391 65.8984 164.352 65.9062 166.062C65.8984 167.758 63.9141 168.75 60.7344 168.75C57.5703 168.75 55.5469 167.758 55.5469 166.062ZM57.625 166.062C57.6094 166.82 58.7266 167.234 60.7344 167.234C62.7188 167.234 63.8438 166.82 63.8438 166.062C63.8438 165.273 62.7188 164.859 60.7344 164.859C58.7266 164.859 57.6094 165.273 57.625 166.062ZM76.4844 164V165.594H73.6328C73.7266 167.102 74.8125 168.594 77.0312 169.203L76.0312 170.75C74.4062 170.281 73.2734 169.305 72.625 168.07C71.9844 169.414 70.8125 170.484 69.125 171L68.125 169.438C70.3906 168.789 71.4922 167.203 71.5859 165.594H68.6719V164H76.4844ZM70.4688 177.281V171.531H72.4375V172.859H78V171.531H79.9844V177.281H70.4688ZM72.4375 175.688H78V174.406H72.4375V175.688ZM77.9844 170.938V163.219H79.9844V170.938H77.9844ZM97.6875 169.328V170.906H92.5312V164.406H97.5781V166H94.5312V169.328H97.6875ZM85.5938 175.781V174.172H91.0625V171.531H93.0312V174.172H98.6094V175.781H85.5938ZM86.5938 170.906V164.406H91.6406V166H88.5938V169.289C89.7109 169.258 90.6719 169.172 91.7344 168.969L91.875 170.594C90.4297 170.891 89.1953 170.914 87.5 170.906H86.5938ZM110.375 164V165.562H105.766V166.438H109.953V167.922H105.766V168.891C107.859 168.883 109.258 168.852 110.891 168.609L111.031 170.172C109.148 170.453 107.539 170.469 104.891 170.469H103.781V164H110.375ZM105.625 172.797V171.266H115.094V175H107.641V175.812H115.516V177.344H105.641V173.562H113.109V172.797H105.625ZM110.797 167.812V166.25H113.109V163.219H115.094V170.75H113.109V167.812H110.797ZM120.859 164.219C122.781 164.219 124.219 165.797 124.5 168.359H126.969V163.219H128.938V177.469H126.969V169.953H124.523C124.312 172.688 122.844 174.359 120.859 174.359C118.703 174.359 117.156 172.406 117.172 169.281C117.156 166.18 118.703 164.219 120.859 164.219ZM119.078 169.281C119.07 171.398 119.797 172.555 120.859 172.547C121.93 172.555 122.641 171.398 122.641 169.281C122.641 167.172 121.93 166.016 120.859 166.016C119.797 166.016 119.07 167.172 119.078 169.281Z" fill="#1400F5"/>
<path d="M289 161L288 162H283V164H284V179C284 179.522 284.191 180.055 284.568 180.432C284.945 180.809 285.478 181 286 181H296C296.522 181 297.055 180.809 297.432 180.432C297.809 180.055 298 179.522 298 179V164H299V162H294L293 161H289ZM286 164H296V179H286V164ZM288 166V177H290V166H288ZM292 166V177H294V166H292Z" fill="#1400F5"/>
<rect x="16.5" y="205.5" width="302" height="54" rx="7.5" fill="#FCFCFC" stroke="#DFE2FF"/>
<path d="M52.0156 232.805V234.415H47.9219V237.68H53.4375V239.274H40.4219V237.68H45.9062V234.415H41.875V227.774H43.9219V232.805H52.0156ZM66.2969 226.696V237.43H64.2969V236.305H61.5781V234.946H64.2969V226.696H66.2969ZM54.2031 232.993C56.8047 232.977 60.3203 232.938 63.3281 232.571L63.4375 233.993C62.3125 234.18 61.1484 234.313 60 234.399V237.102H58V239.055H66.6094V240.649H56.0156V236.399H58V234.516C56.7266 234.563 55.5156 234.571 54.4375 234.571L54.2031 232.993ZM55.25 229.727C55.25 228.211 56.7109 227.172 58.8281 227.18C60.8906 227.172 62.3672 228.211 62.375 229.727C62.3672 231.25 60.8906 232.235 58.8281 232.227C56.7109 232.235 55.25 231.25 55.25 229.727ZM57.1406 229.727C57.1328 230.415 57.8125 230.797 58.8281 230.79C59.7812 230.797 60.4688 230.415 60.4844 229.727C60.4688 229.024 59.7812 228.633 58.8281 228.633C57.8125 228.633 57.1328 229.024 57.1406 229.727ZM79.5312 227.508V228.79C79.5234 230.118 79.5234 231.563 79.1641 233.555H81.0469V235.165H75.5V240.915H73.5V235.165H68.0781V233.555H77.1406C77.5078 231.727 77.5391 230.329 77.5469 229.102H69.5625V227.508H79.5312ZM96.9688 226.696V230.305H98.7812V231.961H96.9688V235.618H94.9688V226.696H96.9688ZM85.5625 233.493C86.5547 233.493 87.7031 233.485 88.9062 233.454V232.469C87.3281 232.18 86.2891 231.18 86.2969 229.821C86.2891 228.211 87.7656 227.102 89.875 227.102C91.9609 227.102 93.4453 228.211 93.4531 229.821C93.4453 231.157 92.4297 232.149 90.9062 232.454V233.375C92.0234 233.313 93.1328 233.227 94.1719 233.086L94.3438 234.461C91.4219 234.977 88.1719 235.024 85.7656 235.024L85.5625 233.493ZM87.3125 238.368C87.3125 236.735 89.1719 235.79 92.1719 235.79C95.1719 235.79 97.0156 236.735 97.0156 238.368C97.0156 239.938 95.1719 240.907 92.1719 240.899C89.1719 240.907 87.3125 239.938 87.3125 238.368ZM88.1562 229.821C88.1406 230.633 88.8281 231.102 89.875 231.102C90.8984 231.102 91.5781 230.633 91.5781 229.821C91.5781 229.024 90.8906 228.586 89.875 228.586C88.8281 228.586 88.1406 229.024 88.1562 229.821ZM89.2812 238.368C89.2656 239.032 90.2891 239.383 92.1719 239.383C94.0156 239.383 95.0391 239.032 95.0469 238.368C95.0391 237.649 94.0156 237.305 92.1719 237.29C90.2891 237.305 89.2656 237.649 89.2812 238.368ZM112.391 234.524V236.118H106.859V240.899H104.891V236.118H99.4219V234.524H112.391ZM100.062 232.133C102.938 231.782 104.531 230.391 104.742 228.993H100.594V227.43H111.234V228.993H107.086C107.289 230.391 108.859 231.782 111.781 232.133L111.062 233.696C108.562 233.36 106.773 232.297 105.914 230.836C105.047 232.297 103.273 233.36 100.797 233.696L100.062 232.133ZM125.234 235.743V240.915H123.25V237.321H115.469V235.743H125.234ZM113.844 234.321V227.696H120.594V230.086H123.25V226.68H125.234V235.086H123.25V231.68H120.594V234.321H113.844ZM115.828 232.743H118.641V229.305H115.828V232.743Z" fill="#1400F5"/>
<path d="M289 224L288 225H283V227H284V242C284 242.522 284.191 243.055 284.568 243.432C284.945 243.809 285.478 244 286 244H296C296.522 244 297.055 243.809 297.432 243.432C297.809 243.055 298 242.522 298 242V227H299V225H294L293 224H289ZM286 227H296V242H286V227ZM288 229V240H290V229H288ZM292 229V240H294V229H292Z" fill="#1400F5"/>
<rect opacity="0.5" x="325" y="50" width="8" height="38" rx="4" fill="#8491FF"/>
</g>
<rect x="1" y="1" width="333" height="227" rx="3" stroke="#8491FF" stroke-width="2"/>
<defs>
<clipPath id="clip0_95_4008">
<rect width="335" height="229" rx="4" fill="white"/>
</clipPath>
</defs>
</svg>
