<svg width="92" height="36" viewBox="0 0 92 36" fill="none" xmlns="http://www.w3.org/2000/svg">
<rect width="92" height="36" rx="18" fill="#F1F1F1"/>
<path d="M24.0898 11.9258V15.248H25.8398V16.3281H24.0898V19.7051H22.791V11.9258H24.0898ZM14.4375 17.9414C15.3604 17.9414 16.4336 17.9346 17.5547 17.9004V16.8682C16.0781 16.6836 15.1143 15.8223 15.1211 14.6055C15.1143 13.252 16.3516 12.3428 18.1699 12.3359C19.9678 12.3428 21.2188 13.252 21.2324 14.6055C21.2188 15.8018 20.2754 16.6494 18.8535 16.8545V17.8525C19.9404 17.791 21.0273 17.7021 22.0391 17.5586L22.1484 18.4883C19.5713 18.9326 16.6934 18.9736 14.5742 18.9668L14.4375 17.9414ZM15.9961 21.9883C15.9961 20.6143 17.5479 19.8281 20.084 19.8281C22.6133 19.8281 24.1582 20.6143 24.1719 21.9883C24.1582 23.335 22.6133 24.1416 20.084 24.1348C17.5479 24.1416 15.9961 23.335 15.9961 21.9883ZM16.3379 14.6055C16.3242 15.4258 17.0625 15.9453 18.1699 15.9453C19.2568 15.9453 20.002 15.4258 20.002 14.6055C20.002 13.8193 19.2568 13.3271 18.1699 13.3203C17.0625 13.3271 16.3242 13.8193 16.3379 14.6055ZM17.2676 21.9883C17.2607 22.7129 18.3066 23.1299 20.084 23.1367C21.8271 23.1299 22.873 22.7129 22.8867 21.9883C22.873 21.2432 21.8271 20.8262 20.084 20.8262C18.3066 20.8262 17.2607 21.2432 17.2676 21.9883ZM40.7285 11.9121V24.1621H39.5254V11.9121H40.7285ZM29.6953 19.9922C31.0762 18.9053 31.3018 16.8955 31.3086 15.4258V13.1289H32.4434V15.4258C32.4434 16.4785 32.5254 18.1191 33.3389 19.3496C34.1045 18.1602 34.1934 16.5879 34.1934 15.4258V13.1289H35.3555V15.4258C35.3555 16.9502 35.5879 18.9326 36.9688 20.0059L36.2031 20.9082C35.4854 20.3477 35.0479 19.5068 34.7812 18.5703C34.5352 19.5479 34.0977 20.457 33.332 21.0586C32.5596 20.457 32.1152 19.5273 31.8623 18.543C31.6025 19.4795 31.165 20.3271 30.4473 20.8945L29.6953 19.9922ZM35.9707 17.1621V16.0547H37.2422V12.1445H38.459V23.5605H37.2422V17.1621H35.9707ZM53.2793 21.5645V22.6445H42.0684V21.5645H47.0039V19.0488H43.3535V12.7461H44.6523V14.8516H50.668V12.7461H51.9531V19.0488H48.2891V21.5645H53.2793ZM44.6523 17.9961H50.668V15.9043H44.6523V17.9961ZM64.3125 11.9121V24.1895H63.0137V11.9121H64.3125ZM54.5918 17.1211C54.5918 14.5029 55.9111 12.835 57.7637 12.8281C59.582 12.835 60.9219 14.5029 60.9219 17.1211C60.9219 19.7666 59.582 21.4346 57.7637 21.4277C55.9111 21.4346 54.5918 19.7666 54.5918 17.1211ZM55.8496 17.1211C55.8428 19.0693 56.6221 20.2656 57.7637 20.2656C58.8848 20.2656 59.6641 19.0693 59.6641 17.1211C59.6641 15.2002 58.8848 13.9971 57.7637 13.9902C56.6221 13.9971 55.8428 15.2002 55.8496 17.1211ZM76.7949 11.9121V24.1621H75.5645V11.9121H76.7949ZM66.2266 20.6211C68.8242 19.0762 70.0684 17.0186 70.2939 14.4961H66.8008V13.4297H71.5859C71.5791 14.626 71.415 15.7676 71.0391 16.834H72.9805V12.2266H74.2109V23.5605H72.9805V17.873H70.5879C69.8633 19.2949 68.6943 20.5391 66.9648 21.5508L66.2266 20.6211Z" fill="#3A3A3A"/>
</svg>
