<svg width="338" height="42" viewBox="0 0 338 42" fill="none" xmlns="http://www.w3.org/2000/svg">
<path d="M0 8C0 3.58172 3.58172 0 8 0H330C334.418 0 338 3.58172 338 8V34C338 38.4183 334.418 42 330 42H8C3.58172 42 0 38.4183 0 34V8Z" fill="#3A3A3A"/>
<path d="M97.3691 16.1016H98.873V22.6094C98.8799 24.6875 97.3145 26.1641 94.9492 26.1641C92.5635 26.1641 91.0049 24.6875 91.0117 22.6094V16.1016H92.5156V22.4863C92.5088 23.8262 93.4453 24.79 94.9492 24.7969C96.4463 24.79 97.3691 23.8262 97.3691 22.4863V16.1016ZM100.896 26V16.1016H104.424C106.728 16.1016 107.855 17.3799 107.855 19.2051C107.855 20.5381 107.254 21.543 106.051 22.001L108.238 26H106.529L104.52 22.2676H104.424H102.4V26H100.896ZM102.4 20.9688H104.273C105.729 20.9619 106.338 20.3193 106.338 19.2051C106.338 18.0908 105.729 17.3936 104.273 17.3867H102.4V20.9688ZM109.523 26V16.1016H111.027V24.7012H115.498V26H109.523ZM131.07 21.1602V22.2129H119.9V21.1602H124.836V19.834H121.363V15.1992H122.648V16.5254H128.322V15.1992H129.621V19.834H126.121V21.1602H131.07ZM121.145 24.3457V23.3066H129.703V27.1621H128.391V24.3457H121.145ZM122.648 18.7949H128.322V17.4961H122.648V18.7949ZM136.252 18.0293C136.238 20.1963 137.503 22.418 139.328 23.3066L138.521 24.3457C137.188 23.6484 136.156 22.2812 135.616 20.6475C135.069 22.3838 133.996 23.8535 132.602 24.5781L131.795 23.5254C133.675 22.623 134.946 20.2715 134.953 18.0293V15.9375H136.252V18.0293ZM140.244 27.1621V14.9121H141.543V19.793H143.512V20.9004H141.543V27.1621H140.244ZM153.643 14.9121V19.793H155.543V20.873H153.643V27.1484H152.344V14.9121H153.643ZM144.113 23.8809C147.183 22.3496 148.851 20.1348 149.117 17.2773H144.729V16.1973H150.443C150.43 19.7383 148.871 22.9033 144.838 24.8926L144.113 23.8809ZM163.336 15.459C165.127 15.459 166.385 16.4434 166.398 17.9062C166.385 19.1504 165.441 20.0596 164.02 20.2852V21.3789C165.1 21.3174 166.193 21.2148 167.205 21.0645L167.301 22.0215C164.73 22.4863 161.846 22.5342 159.74 22.5273L159.604 21.4746C160.52 21.4814 161.593 21.4746 162.721 21.4336V20.2988C161.258 20.0938 160.28 19.1709 160.287 17.9062C160.28 16.4434 161.538 15.459 163.336 15.459ZM161.34 26.9023V23.4707H162.639V25.8359H169.693V26.9023H161.34ZM161.504 17.9062C161.49 18.7744 162.256 19.3418 163.336 19.3418C164.423 19.3418 165.168 18.7744 165.168 17.9062C165.168 17.0176 164.423 16.457 163.336 16.457C162.256 16.457 161.49 17.0176 161.504 17.9062ZM167.957 24.291V14.9258H169.256V18.9727H171.006V20.0664H169.256V24.291H167.957ZM182.928 24.6055V25.6992H171.717V24.6055H174.779V22.4453H173.084V18.5488H180.275V16.8398H173.057V15.7734H181.561V19.6016H174.369V21.3789H181.848V22.4453H179.988V24.6055H182.928ZM176.037 24.6055H178.717V22.4453H176.037V24.6055ZM191.117 20.0938V21.1602H188.533V23.4297C189.668 23.3818 190.81 23.3066 191.883 23.1836L191.979 24.1406C189.278 24.5439 186.38 24.585 184.049 24.5918L183.885 23.5117C184.917 23.5117 186.059 23.5049 187.234 23.4775V21.1602H184.773V16.0469H191.062V17.0996H186.059V20.0938H191.117ZM192.648 27.1895V14.9121H193.947V27.1895H192.648ZM200.264 22.9922C200.264 24.0518 200.79 25.166 201.897 25.8428C203.019 25.1113 203.552 23.9219 203.559 22.9922V22.3359H204.83V22.9922C204.83 24.2568 205.664 25.5146 207.291 26.0273L206.621 26.998C205.418 26.5674 204.598 25.7471 204.174 24.7354C203.784 25.7197 203.053 26.6357 201.918 27.1074C200.756 26.6631 200.011 25.7949 199.628 24.79C199.19 25.7539 198.377 26.5674 197.229 26.998L196.6 26.0273C198.165 25.4805 199.006 24.1816 199.02 22.9922V22.3359H200.264V22.9922ZM196.107 18.4805C196.101 16.7852 197.461 15.582 199.307 15.582C200.893 15.582 202.15 16.5186 202.431 17.9062H204.83V14.9121H206.129V21.8574H204.83V18.9727H202.451C202.198 20.3945 200.927 21.3652 199.307 21.3652C197.461 21.3652 196.101 20.1689 196.107 18.4805ZM197.352 18.4805C197.345 19.54 198.172 20.2852 199.307 20.2852C200.414 20.2852 201.241 19.54 201.248 18.4805C201.241 17.4004 200.414 16.6689 199.307 16.6758C198.172 16.6689 197.345 17.4004 197.352 18.4805ZM210.682 22.2539V23.5527H216.438V22.2539H217.736V27.0117H209.396V22.2539H210.682ZM208.016 21.4883V20.4082H219.186V21.4883H208.016ZM208.617 18.6309C210.989 18.3232 212.931 17.0176 212.938 15.5684V15.0488H214.264V15.5684C214.271 16.9766 216.226 18.3438 218.57 18.6309L218.105 19.6562C216.123 19.3828 214.394 18.4395 213.607 17.1338C212.814 18.4463 211.078 19.3828 209.109 19.6562L208.617 18.6309ZM210.682 25.9727H216.438V24.5645H210.682V25.9727ZM230.287 14.9121V27.1621H228.988V14.9121H230.287ZM220.867 24.0449V16.1016H222.152V22.9238C223.943 22.917 225.823 22.7598 227.785 22.3633L227.963 23.457C225.796 23.9014 223.827 24.0518 221.893 24.0449H220.867ZM241.758 14.9121V19.6562H243.727V20.7227H241.758V27.1895H240.459V14.9121H241.758ZM232.734 24.1406V16.0879H238.463V17.1406H234.033V23.0605C236.091 23.0537 237.629 22.9648 239.379 22.6504L239.543 23.7441C237.622 24.0859 235.995 24.1475 233.719 24.1406H232.734ZM245.709 26.0957C245.176 26.0889 244.731 25.6582 244.738 25.125C244.731 24.5918 245.176 24.1543 245.709 24.1543C246.235 24.1543 246.673 24.5918 246.68 25.125C246.673 25.6582 246.235 26.0889 245.709 26.0957Z" fill="white"/>
</svg>
