<svg width="24" height="24" viewBox="0 0 24 24" fill="none" xmlns="http://www.w3.org/2000/svg">
<circle cx="12" cy="12" r="8" fill="#AFAFAF"/>
<path fill-rule="evenodd" clip-rule="evenodd" d="M8.64675 8.64816C8.84201 8.45289 9.1586 8.45289 9.35386 8.64816L12.0004 11.2947L14.647 8.64816C14.8423 8.45289 15.1588 8.45289 15.3541 8.64816C15.5494 8.84342 15.5494 9.16 15.3541 9.35526L12.7075 12.0018L15.3539 14.6482C15.5491 14.8434 15.5491 15.16 15.3539 15.3553C15.1586 15.5505 14.842 15.5505 14.6468 15.3553L12.0004 12.7089L9.3541 15.3553C9.15884 15.5505 8.84226 15.5505 8.647 15.3553C8.45173 15.16 8.45173 14.8434 8.647 14.6482L11.2933 12.0018L8.64675 9.35526C8.45149 9.16 8.45149 8.84342 8.64675 8.64816Z" fill="#F2F2F2"/>
</svg>
