<svg width="167" height="56" viewBox="0 0 167 56" fill="none" xmlns="http://www.w3.org/2000/svg">
<rect width="167" height="56" rx="28" fill="#1400F5"/>
<path d="M44.3516 29.4844V34.9062H42.6016V30.9062H34.7109V29.4844H44.3516ZM33.4141 27.9844V21.5469H35.1641V26.5469C37.0859 26.5156 39.1328 26.3516 41.2734 25.9375L41.4922 27.3438C39.0469 27.8281 36.7812 27.9844 34.6172 27.9844H33.4141ZM42.6016 28.8594V20.7969H44.3516V28.8594H42.6016ZM48.7422 22.1719V29.9375C50.125 29.9219 51.3906 29.8281 52.8359 29.5156L53.0859 30.9844C51.2969 31.375 49.75 31.4375 47.9609 31.4375H47.0078V22.1719H48.7422ZM50.9766 26.7344V25.3281H53.9297V21.0625H55.5703V34.2188H53.9297V26.7344H50.9766ZM56.9453 34.8906V20.7656H58.6016V34.8906H56.9453ZM72.0078 20.7812V28.7812H70.2578V20.7812H72.0078ZM60.4922 24.8281C60.4922 22.8359 62.1172 21.4609 64.3047 21.4531C66.4844 21.4609 68.1094 22.8359 68.1016 24.8281C68.1094 26.7734 66.4844 28.1719 64.3047 28.1719C62.1172 28.1719 60.4922 26.7734 60.4922 24.8281ZM62.1953 24.8281C62.1875 25.9688 63.0703 26.7109 64.3047 26.7031C65.5156 26.7109 66.3984 25.9688 66.3984 24.8281C66.3984 23.6562 65.5156 22.9219 64.3047 22.9219C63.0703 22.9219 62.1875 23.6562 62.1953 24.8281ZM62.6328 34.7188V29.4688H72.0078V34.7188H62.6328ZM64.3516 33.3125H70.3047V30.8438H64.3516V33.3125ZM83.1953 24.7812C83.1953 27.0938 84.5547 29.5312 86.8359 30.4844L85.8828 31.8594C84.2109 31.1328 82.9922 29.6562 82.3438 27.8594C81.6953 29.7969 80.4531 31.4219 78.8047 32.2031L77.8047 30.8438C80.0312 29.8125 81.4219 27.1797 81.4297 24.7812V23.5938H78.3203V22.1562H86.2891V23.5938H83.1953V24.7812ZM87.8672 34.8906V20.7656H89.6172V34.8906H87.8672ZM95.5547 21.7969C97.4609 21.7969 98.875 23.3906 99.125 25.9688H101.82V20.7656H103.539V34.9062H101.82V27.375H99.1406C98.9531 30.1016 97.5156 31.7812 95.5547 31.7812C93.4297 31.7812 91.9219 29.8516 91.9297 26.7812C91.9219 23.7344 93.4297 21.7969 95.5547 21.7969ZM93.6016 26.7812C93.5938 28.9531 94.3906 30.2109 95.5547 30.2188C96.7266 30.2109 97.5156 28.9531 97.5234 26.7812C97.5156 24.625 96.7266 23.3594 95.5547 23.3594C94.3906 23.3594 93.5938 24.625 93.6016 26.7812ZM110.977 23.1562C110.977 24.2891 112.164 25.3594 114.289 25.7031L113.602 27.0312C111.953 26.7344 110.758 26 110.109 25.0234C109.469 26.0859 108.242 26.8828 106.492 27.2188L105.789 25.875C108.008 25.5 109.195 24.375 109.195 23.1562V23.0938H106.336V21.7188H113.852V23.0938H110.977V23.1562ZM105.461 28.1406C108.07 28.1406 111.617 28.1094 114.68 27.6875L114.789 28.9688C113.508 29.1953 112.18 29.3438 110.883 29.4297V34.4531H109.133V29.5234C107.891 29.5703 106.719 29.5781 105.68 29.5781L105.461 28.1406ZM112.68 31.7188V30.3906H115.68V20.7812H117.445V34.875H115.68V31.7188H112.68Z" fill="#FCFCFC"/>
<path d="M131 24.4366L132.206 23.1978C133.76 21.6013 136.28 21.6013 137.834 23.1978C139.389 24.7943 139.389 27.3828 137.834 28.9793L131 36L124.166 28.9791C122.611 27.3825 122.611 24.794 124.166 23.1974C125.72 21.6009 128.24 21.6009 129.794 23.1974L131 24.4366Z" fill="#FCFCFC"/>
</svg>
