<svg width="178" height="56" viewBox="0 0 178 56" fill="none" xmlns="http://www.w3.org/2000/svg">
<rect width="178" height="56" rx="28" fill="#1400F5"/>
<path d="M45.7734 30.0527V36.0293H44.1035V31.4414H35.1035V30.0527H45.7734ZM33.6797 28.1895V21.123H35.3496V26.8008C37.5996 26.7744 39.9727 26.5986 42.4863 26.0977L42.7148 27.4688C39.9463 28.0049 37.4326 28.1895 34.9805 28.1895H33.6797ZM44.1035 29.3145V20.2617H45.7734V29.3145H44.1035ZM50.6602 21.8789V30.6328C52.2773 30.6064 53.7979 30.5098 55.5469 30.1406L55.7754 31.5645C53.7275 31.9951 51.9785 32.0742 50.0273 32.0742H48.9902V21.8789H50.6602ZM53.4023 26.8008V25.4297H56.8477V20.5957H58.4297V35.2207H56.8477V26.8008H53.4023ZM60.2227 35.9941V20.2441H61.8047V35.9941H60.2227ZM76.8867 20.2617V29.2266H75.2168V20.2617H76.8867ZM64.1426 24.7793C64.1514 22.5557 65.9268 21.0439 68.3438 21.0527C70.752 21.0439 72.5273 22.5557 72.5273 24.7793C72.5273 26.9414 70.752 28.4707 68.3438 28.4707C65.9268 28.4707 64.1514 26.9414 64.1426 24.7793ZM65.7773 24.7793C65.7686 26.1328 66.8496 27.0645 68.3438 27.0645C69.8203 27.0645 70.8926 26.1328 70.8926 24.7793C70.8926 23.3818 69.8203 22.4502 68.3438 22.459C66.8496 22.4502 65.7686 23.3818 65.7773 24.7793ZM66.5332 35.8008V30.0176H76.8867V35.8008H66.5332ZM68.1855 34.4473H75.252V31.3535H68.1855V34.4473ZM89.5781 24.8848C89.5693 27.5215 91.3008 30.2461 93.7266 31.2832L92.8125 32.584C90.958 31.7666 89.4814 30.0264 88.752 27.9258C88.0225 30.1758 86.5459 32.0918 84.709 32.9883L83.7422 31.6699C86.1152 30.5537 87.873 27.6006 87.8906 24.8848V23.2148H84.2871V21.8262H93.1641V23.2148H89.5781V24.8848ZM95.1504 35.9941V20.2441H96.8203V35.9941H95.1504ZM103.605 21.4219C105.75 21.4307 107.306 23.2412 107.561 26.1504H110.812V20.2441H112.465V36.0293H110.812V27.5039H107.578C107.394 30.5801 105.803 32.4873 103.605 32.4785C101.259 32.4873 99.5977 30.3428 99.6152 26.9414C99.5977 23.5752 101.259 21.4307 103.605 21.4219ZM101.197 26.9414C101.206 29.4463 102.182 30.9844 103.605 30.9844C105.029 30.9844 106.005 29.4463 106.014 26.9414C106.005 24.4717 105.029 22.9248 103.605 22.916C102.182 22.9248 101.206 24.4717 101.197 26.9414ZM120.832 22.8633C120.832 24.252 122.326 25.4912 124.646 25.9043L123.961 27.1875C122.124 26.8184 120.727 25.9482 120.015 24.7881C119.303 26.0537 117.879 27.0117 115.945 27.416L115.242 26.1328C117.65 25.6758 119.136 24.3574 119.145 22.8633V22.6875H115.822V21.3516H124.189V22.6875H120.832V22.8633ZM114.82 28.5586C117.756 28.5674 121.746 28.5322 125.191 28.0488L125.297 29.2969C123.803 29.5518 122.256 29.71 120.744 29.8066V35.502H119.074V29.8857C117.624 29.9473 116.253 29.9561 115.049 29.9648L114.82 28.5586ZM122.889 32.3203V31.0371H126.369V20.2617H128.057V35.9941H126.369V32.3203H122.889Z" fill="#FCFCFC"/>
<path d="M142 24.4366L143.206 23.1978C144.76 21.6013 147.28 21.6013 148.834 23.1978C150.389 24.7943 150.389 27.3828 148.834 28.9793L142 36L135.166 28.9791C133.611 27.3825 133.611 24.794 135.166 23.1974C136.72 21.6009 139.24 21.6009 140.794 23.1974L142 24.4366Z" fill="#FCFCFC"/>
</svg>
