<svg width="64" height="64" viewBox="0 0 64 64" fill="none" xmlns="http://www.w3.org/2000/svg">
<path d="M10.5742 18.0001C9.27201 17.9913 8.20915 19.0168 8.20019 20.2906L8.00006 48.736C7.9911 50.0097 9.03942 51.0495 10.3416 51.0582L32.3465 51.2064L32.2806 60.5761C32.2801 60.6496 32.2848 60.7218 32.2945 60.7926L19.7044 60.7078C18.8363 60.702 18.1277 61.3857 18.1217 62.2348C18.1158 63.084 18.8146 63.7772 19.6827 63.783L51.9051 64C52.7732 64.0058 53.4818 63.3221 53.4878 62.473C53.4937 61.6238 52.7949 60.9306 51.9268 60.9248L40.1228 60.8453C40.1334 60.7747 40.1392 60.7025 40.1397 60.629L40.2056 51.2593L61.4258 51.4021C62.728 51.4109 63.7909 50.3854 63.7998 49.1116L63.9999 20.6662C64.0089 19.3925 62.9606 18.3527 61.6584 18.344L10.5742 18.0001Z" fill="#8491FF"/>
<path d="M10.8014 22.2382C10.8079 21.3116 11.5811 20.5655 12.5284 20.5719L59.6666 20.8893C60.6138 20.8957 61.3765 21.652 61.3699 22.5786L61.1955 47.3681C61.189 48.2947 60.4158 49.0407 59.4686 49.0344L12.3304 48.717C11.3831 48.7106 10.6205 47.9543 10.627 47.0277L10.8014 22.2382Z" fill="#CAD6FF"/>
<path d="M53.2848 32.1298C53.6502 31.8543 53.7331 31.348 53.4737 30.9748C53.1916 30.5687 52.6181 30.4789 52.2205 30.7785L34.8782 43.849C34.4967 44.1365 34.4257 44.6721 34.7196 45.0452C35.0135 45.4183 35.561 45.4878 35.9424 45.2003L53.2848 32.1298Z" fill="white"/>
<path d="M58.5053 33.8573C58.8775 33.5768 58.9555 33.0583 58.6818 32.6847C58.3944 32.2925 57.8318 32.2115 57.4411 32.5061L47.9857 39.6323C47.6042 39.9198 47.5333 40.4554 47.8271 40.8285C48.121 41.2016 48.6685 41.2711 49.05 40.9836L58.5053 33.8573Z" fill="white"/>
</svg>
