<svg width="64" height="64" viewBox="0 0 64 64" fill="none" xmlns="http://www.w3.org/2000/svg">
<g clip-path="url(#clip0_62_295)">
<path d="M31.6532 8.43502C32.4058 6.56585 34.5274 5.65949 36.3917 6.41062L60.9862 16.3194C62.8505 17.0706 63.7517 19.1947 62.9991 21.0639L46.7394 61.4435C45.9867 63.3127 43.8652 64.2191 42.0009 63.4679L17.4064 53.5591C15.542 52.808 14.6408 50.6838 15.3935 48.8146L31.6532 8.43502Z" fill="#CAD6FF"/>
<path d="M33.7959 10.0223C34.1722 9.08773 35.2329 8.63455 36.1651 9.01012L59.3459 18.3494C60.2781 18.7249 60.7287 19.787 60.3523 20.7216L46.8415 54.2746C46.4652 55.2091 45.4045 55.6623 44.4723 55.2867L21.2915 45.9475C20.3594 45.5719 19.9087 44.5098 20.2851 43.5753L33.7959 10.0223Z" fill="#8491FF"/>
<path d="M33.6907 55.3133C33.2637 56.3736 32.0601 56.8878 31.0024 56.4618C29.9448 56.0357 29.4336 54.8309 29.8607 53.7706C30.2877 52.7103 31.4913 52.1961 32.5489 52.6221C33.6066 53.0481 34.1178 54.253 33.6907 55.3133Z" fill="#8491FF"/>
<path d="M47.6136 21.9954C48.0618 21.7832 48.2588 21.2511 48.0569 20.7982C47.8491 20.332 47.2993 20.1285 46.8379 20.3469L40.8161 23.1988C40.3614 23.4141 40.1664 23.9577 40.3806 24.4129C40.5947 24.8681 41.137 25.0626 41.5918 24.8472L47.6136 21.9954Z" fill="white"/>
<path d="M44.7574 18.904C45.2011 18.6938 45.3994 18.1696 45.2059 17.7184C45.0026 17.2447 44.4476 17.0349 43.9817 17.2555L32.7093 22.5939C32.2546 22.8093 32.0596 23.3529 32.2737 23.8081C32.4879 24.2633 33.0302 24.4577 33.485 24.2424L44.7574 18.904Z" fill="white"/>
<path d="M3.33333 5C2.59695 5 2 5.56982 2 6.27273V15.1818C2 15.8847 2.59695 16.4545 3.33333 16.4545H15.3333L19.3333 19V16.4547L15.3333 16.4545H20.6667C21.403 16.4545 22 15.8847 22 15.1818V6.27273C22 5.56982 21.403 5 20.6667 5H3.33333Z" fill="#CAD6FF"/>
</g>
<defs>
<clipPath id="clip0_62_295">
<rect width="64" height="64" fill="white"/>
</clipPath>
</defs>
</svg>
