<svg width="64" height="64" viewBox="0 0 64 64" fill="none" xmlns="http://www.w3.org/2000/svg">
<path d="M54 39.5C54 26.5213 43.4787 16 30.5 16C17.5213 16 7 26.5213 7 39.5C7 52.4787 17.5213 63 30.5 63C43.4787 63 54 52.4787 54 39.5Z" fill="#CAD6FF"/>
<path d="M64 32.5C64 38.8513 58.8513 44 52.5 44C46.1487 44 41 38.8513 41 32.5C41 26.1487 46.1487 21 52.5 21C58.8513 21 64 26.1487 64 32.5Z" fill="#8491FF"/>
<path d="M48 59C48 61.7614 45.7614 64 43 64C40.2386 64 38 61.7614 38 59C38 56.2386 40.2386 54 43 54C45.7614 54 48 56.2386 48 59Z" fill="#8491FF"/>
<path d="M16 9C16 10.6569 14.6569 12 13 12C11.3431 12 10 10.6569 10 9C10 7.34315 11.3431 6 13 6C14.6569 6 16 7.34315 16 9Z" fill="#8491FF"/>
</svg>
