<svg width="64" height="64" viewBox="0 0 64 64" fill="none" xmlns="http://www.w3.org/2000/svg">
<path d="M27 9.72014C27 9.47483 26.822 9.26575 26.5799 9.22656L24.5799 8.90292C24.2758 8.85372 24 9.08849 24 9.3965V63.5C24 63.7761 24.2239 64 24.5 64H26.5C26.7761 64 27 63.7761 27 63.5V9.72014Z" fill="#CAD6FF"/>
<path d="M29.5 64C29.2239 64 29 63.7761 29 63.5V10.2056C29 9.89758 29.2758 9.66281 29.5799 9.71202L31.5799 10.0357C31.822 10.0748 32 10.2839 32 10.5292V63.5C32 63.7761 31.7761 64 31.5 64H29.5Z" fill="#CAD6FF"/>
<path d="M34.5 64C34.2239 64 34 63.7761 34 63.5V11.0147C34 10.7067 34.2758 10.4719 34.5799 10.5211L36.5799 10.8447C36.822 10.8839 37 11.093 37 11.3383V63.5C37 63.7761 36.7761 64 36.5 64H34.5Z" fill="#CAD6FF"/>
<path d="M39 63.5C39 63.7761 39.2239 64 39.5 64H41V11.9856C41 11.7403 40.822 11.5312 40.5799 11.492L39.5799 11.3302C39.2758 11.281 39 11.5158 39 11.8238V63.5Z" fill="#CAD6FF"/>
<path d="M19 8L21.5799 8.41747C21.822 8.45666 22 8.66574 22 8.91105V63.5C22 63.7761 21.7761 64 21.5 64H19V8Z" fill="#CAD6FF"/>
<path d="M8.00097 13.3219C8.00097 13.1259 8.11557 12.9479 8.29405 12.8668L19 8V64H8.50001C8.22386 64 8 63.7761 8.00001 63.5L8.00097 13.3219Z" fill="#8491FF"/>
<path d="M41 23.9339C41 23.6938 41.1707 23.4876 41.4067 23.4427L48.4067 22.1127C48.7147 22.0542 49 22.2904 49 22.6039V63.5C49 63.7761 48.7761 64 48.5 64H41V23.9339Z" fill="#8491FF"/>
<path d="M64 24.7833C64 24.5371 63.8208 24.3276 63.5776 24.2894L61.5776 23.9753C61.2742 23.9276 61 24.1621 61 24.4692V63.4998C61 63.776 61.2239 63.9998 61.5 63.9998H63.5C63.7761 63.9998 64 63.776 64 63.4998V24.7833Z" fill="#CAD6FF"/>
<path d="M56 23.6839C56 23.3768 56.2742 23.1423 56.5776 23.19L58.5776 23.5041C58.8208 23.5423 59 23.7518 59 23.998V63.4998C59 63.776 58.7761 63.9998 58.5 63.9998H56.5C56.2239 63.9998 56 63.776 56 63.4998V23.6839Z" fill="#CAD6FF"/>
<path d="M54 23.2127C54 22.9665 53.8208 22.757 53.5776 22.7188L51.5776 22.4047C51.2742 22.357 51 22.5915 51 22.8986V63.4998C51 63.776 51.2239 63.9998 51.5 63.9998H53.5C53.7761 63.9998 54 63.776 54 63.4998V23.2127Z" fill="#CAD6FF"/>
</svg>
